<svg width="37" height="36" viewBox="0 0 37 36" fill="none" xmlns="http://www.w3.org/2000/svg">
<path d="M18.8245 3.22504L32.3245 8.625C32.8495 8.835 33.2695 9.46499 33.2695 10.02V15C33.2695 15.825 32.5945 16.5 31.7695 16.5H4.76953C3.94453 16.5 3.26953 15.825 3.26953 15V10.02C3.26953 9.46499 3.68954 8.835 4.21454 8.625L17.7145 3.22504C18.0145 3.10504 18.5245 3.10504 18.8245 3.22504Z" stroke="#1F82BD" stroke-width="2" stroke-miterlimit="10" stroke-linecap="round" stroke-linejoin="round"/>
<path d="M33.2695 33H3.26953V28.5C3.26953 27.675 3.94453 27 4.76953 27H31.7695C32.5945 27 33.2695 27.675 33.2695 28.5V33Z" stroke="#1F82BD" stroke-width="2" stroke-miterlimit="10" stroke-linecap="round" stroke-linejoin="round"/>
<path d="M6.26953 27V16.5" stroke="#1F82BD" stroke-width="2" stroke-miterlimit="10" stroke-linecap="round" stroke-linejoin="round"/>
<path d="M12.2695 27V16.5" stroke="#1F82BD" stroke-width="2" stroke-miterlimit="10" stroke-linecap="round" stroke-linejoin="round"/>
<path d="M18.2695 27V16.5" stroke="#1F82BD" stroke-width="2" stroke-miterlimit="10" stroke-linecap="round" stroke-linejoin="round"/>
<path d="M24.2695 27V16.5" stroke="#1F82BD" stroke-width="2" stroke-miterlimit="10" stroke-linecap="round" stroke-linejoin="round"/>
<path d="M30.2695 27V16.5" stroke="#1F82BD" stroke-width="2" stroke-miterlimit="10" stroke-linecap="round" stroke-linejoin="round"/>
<path d="M1.76953 33H34.7695" stroke="#1F82BD" stroke-width="2" stroke-miterlimit="10" stroke-linecap="round" stroke-linejoin="round"/>
<path d="M18.2695 12.75C19.5122 12.75 20.5195 11.7426 20.5195 10.5C20.5195 9.25736 19.5122 8.25 18.2695 8.25C17.0269 8.25 16.0195 9.25736 16.0195 10.5C16.0195 11.7426 17.0269 12.75 18.2695 12.75Z" stroke="#1F82BD" stroke-width="2" stroke-miterlimit="10" stroke-linecap="round" stroke-linejoin="round"/>
</svg>
