<svg width="37" height="36" viewBox="0 0 37 36" fill="none" xmlns="http://www.w3.org/2000/svg">
<path d="M15.2695 33H21.2695C28.7695 33 31.7695 30 31.7695 22.5V13.5C31.7695 6 28.7695 3 21.2695 3H15.2695C7.76953 3 4.76953 6 4.76953 13.5V22.5C4.76953 30 7.76953 33 15.2695 33Z" stroke="#1F82BD" stroke-width="2" stroke-linecap="round" stroke-linejoin="round"/>
<path d="M25.0195 11.37V12.87C25.0195 14.1 24.0145 15.12 22.7695 15.12H13.7695C12.5395 15.12 11.5195 14.115 11.5195 12.87V11.37C11.5195 10.14 12.5245 9.12 13.7695 9.12H22.7695C24.0145 9.12 25.0195 10.125 25.0195 11.37Z" stroke="#1F82BD" stroke-width="2" stroke-linecap="round" stroke-linejoin="round"/>
<path d="M12.4737 21H12.491" stroke="#1F82BD" stroke-width="2.5" stroke-linecap="round" stroke-linejoin="round"/>
<path d="M18.2628 21H18.2801" stroke="#1F82BD" stroke-width="2.5" stroke-linecap="round" stroke-linejoin="round"/>
<path d="M24.0518 21H24.0692" stroke="#1F82BD" stroke-width="2.5" stroke-linecap="round" stroke-linejoin="round"/>
<path d="M12.4737 26.25H12.491" stroke="#1F82BD" stroke-width="2.5" stroke-linecap="round" stroke-linejoin="round"/>
<path d="M18.2628 26.25H18.2801" stroke="#1F82BD" stroke-width="2.5" stroke-linecap="round" stroke-linejoin="round"/>
<path d="M24.0518 26.25H24.0692" stroke="#1F82BD" stroke-width="2.5" stroke-linecap="round" stroke-linejoin="round"/>
</svg>
