<svg width="1920" height="1068" viewBox="0 0 1920 1068" fill="none" xmlns="http://www.w3.org/2000/svg">
<path d="M-87.3623 0.500565L-82.8639 0.505959C-27.9116 0.571848 17.1606 45.1699 17.8076 100.118L17.8572 104.334L-86.1411 104.209L-87.3623 0.500565Z" stroke="#B5B5B5" stroke-opacity="0.2"/>
<path d="M19.8242 0.629532L24.3226 0.634926C79.2749 0.700815 124.347 45.2988 124.994 100.247L125.044 104.463L21.0454 104.338L19.8242 0.629532Z" stroke="#B5B5B5" stroke-opacity="0.2"/>
<path d="M127.01 0.758011L131.508 0.763405C186.46 0.829294 231.533 45.4273 232.18 100.376L232.229 104.591L128.231 104.466L127.01 0.758011Z" stroke="#B5B5B5" stroke-opacity="0.2"/>
<path d="M-86.1035 107.39L-81.6051 107.395C-26.6528 107.461 18.4194 152.059 19.0664 207.008L19.116 211.223L-84.8823 211.098L-86.1035 107.39Z" stroke="#B5B5B5" stroke-opacity="0.2"/>
<path d="M21.0821 107.518L25.5804 107.524C80.5327 107.59 125.605 152.188 126.252 207.136L126.302 211.352L22.3033 211.227L21.0821 107.518Z" stroke="#B5B5B5" stroke-opacity="0.2"/>
<path d="M-84.8447 214.28L-80.3463 214.286C-25.3941 214.352 19.6781 258.95 20.3252 313.898L20.3748 318.114L-83.6235 317.989L-84.8447 214.28Z" stroke="#B5B5B5" stroke-opacity="0.2"/>
<path d="M-79.8105 641.84L-75.3122 641.845C-20.3599 641.911 24.7123 686.509 25.3594 741.457L25.409 745.673L-78.5893 745.548L-79.8105 641.84Z" stroke="#B5B5B5" stroke-opacity="0.2"/>
<path d="M-78.5527 748.729L-74.0544 748.734C-19.1021 748.8 25.9701 793.398 26.6172 848.346L26.6668 852.562L-77.3315 852.437L-78.5527 748.729Z" stroke="#B5B5B5" stroke-opacity="0.2"/>
<path d="M28.6338 748.857L33.1322 748.863C88.0845 748.929 133.157 793.527 133.804 848.475L133.853 852.691L29.855 852.566L28.6338 748.857Z" stroke="#B5B5B5" stroke-opacity="0.2"/>
<path d="M-77.2929 855.619L-72.7946 855.624C-17.8423 855.69 27.2299 900.288 27.8769 955.237L27.9266 959.452L-76.0717 959.327L-77.2929 855.619Z" stroke="#B5B5B5" stroke-opacity="0.2"/>
<path d="M29.8926 855.748L34.391 855.753C89.3433 855.819 134.415 900.417 135.062 955.366L135.112 959.581L31.1138 959.456L29.8926 855.748Z" stroke="#B5B5B5" stroke-opacity="0.2"/>
<path d="M137.08 855.877L141.578 855.882C196.531 855.948 241.603 900.546 242.25 955.495L242.3 959.71L138.301 959.585L137.08 855.877Z" stroke="#B5B5B5" stroke-opacity="0.2"/>
<path d="M244.264 856.004L248.762 856.01C303.714 856.076 348.787 900.674 349.434 955.622L349.483 959.838L245.485 959.713L244.264 856.004Z" stroke="#B5B5B5" stroke-opacity="0.2"/>
<path d="M887.379 856.776L891.877 856.781C946.83 856.847 991.902 901.445 992.549 956.394L992.598 960.609L888.6 960.484L887.379 856.776Z" stroke="#B5B5B5" stroke-opacity="0.2"/>
<path d="M-76.0342 962.51L-71.5358 962.515C-16.5835 962.581 28.4887 1007.18 29.1357 1062.13L29.1854 1066.34L-74.813 1066.22L-76.0342 962.51Z" stroke="#B5B5B5" stroke-opacity="0.2"/>
<path d="M31.1514 962.638L35.6498 962.643C90.602 962.709 135.674 1007.31 136.321 1062.26L136.371 1066.47L32.3726 1066.35L31.1514 962.638Z" stroke="#B5B5B5" stroke-opacity="0.2"/>
<path d="M138.338 962.766L142.836 962.772C197.789 962.838 242.861 1007.44 243.508 1062.38L243.557 1066.6L139.559 1066.47L138.338 962.766Z" stroke="#B5B5B5" stroke-opacity="0.2"/>
<path d="M245.523 962.895L250.022 962.9C304.974 962.966 350.046 1007.56 350.693 1062.51L350.743 1066.73L246.745 1066.6L245.523 962.895Z" stroke="#B5B5B5" stroke-opacity="0.2"/>
<path d="M352.709 963.023L357.207 963.028C412.16 963.094 457.232 1007.69 457.879 1062.64L457.929 1066.86L353.93 1066.73L352.709 963.023Z" stroke="#B5B5B5" stroke-opacity="0.2"/>
<path d="M781.451 963.537L785.95 963.543C840.902 963.608 885.974 1008.21 886.621 1063.16L886.671 1067.37L782.672 1067.25L781.451 963.537Z" stroke="#B5B5B5" stroke-opacity="0.2"/>
<path d="M888.639 963.666L893.137 963.671C948.089 963.737 993.162 1008.33 993.809 1063.28L993.858 1067.5L889.86 1067.37L888.639 963.666Z" stroke="#B5B5B5" stroke-opacity="0.2"/>
<path d="M234.195 0.886032L238.694 0.891426C293.646 0.957314 338.718 45.5553 339.365 100.504L339.415 104.719L235.417 104.595L234.195 0.886032Z" stroke="#B5B5B5" stroke-opacity="0.2"/>
<path d="M341.381 1.01451L345.879 1.0199C400.832 1.08579 445.904 45.6838 446.551 100.632L446.6 104.848L342.602 104.723L341.381 1.01451Z" stroke="#B5B5B5" stroke-opacity="0.2"/>
<path d="M448.566 1.14299L453.065 1.14838C508.017 1.21427 553.089 45.8123 553.736 100.761L553.786 104.976L449.788 104.851L448.566 1.14299Z" stroke="#B5B5B5" stroke-opacity="0.2"/>
<path d="M555.752 1.27147L560.25 1.27686C615.203 1.34275 660.275 45.9408 660.922 100.889L660.971 105.105L556.973 104.98L555.752 1.27147Z" stroke="#B5B5B5" stroke-opacity="0.2"/>
<path d="M662.938 1.40096L667.436 1.40635C722.388 1.47224 767.46 46.0702 768.107 101.019L768.157 105.234L664.159 105.109L662.938 1.40096Z" stroke="#B5B5B5" stroke-opacity="0.2"/>
<path d="M770.123 1.52943L774.621 1.53483C829.574 1.60072 874.646 46.1987 875.293 101.147L875.343 105.363L771.344 105.238L770.123 1.52943Z" stroke="#B5B5B5" stroke-opacity="0.2"/>
<path d="M877.311 1.65743L881.809 1.66282C936.761 1.72871 981.833 46.3267 982.48 101.275L982.53 105.491L878.532 105.366L877.311 1.65743Z" stroke="#B5B5B5" stroke-opacity="0.2"/>
<path d="M128.268 107.648L132.766 107.653C187.718 107.719 232.79 152.317 233.437 207.266L233.487 211.481L129.489 211.356L128.268 107.648Z" stroke="#B5B5B5" stroke-opacity="0.2"/>
<path d="M235.455 107.777L239.953 107.782C294.906 107.848 339.978 152.446 340.625 207.395L340.675 211.61L236.676 211.485L235.455 107.777Z" stroke="#B5B5B5" stroke-opacity="0.2"/>
<path d="M342.639 107.904L347.137 107.909C402.089 107.975 447.162 152.573 447.809 207.522L447.858 211.737L343.86 211.612L342.639 107.904Z" stroke="#B5B5B5" stroke-opacity="0.2"/>
<path d="M449.826 108.033L454.325 108.038C509.277 108.104 554.349 152.702 554.996 207.651L555.046 211.866L451.047 211.741L449.826 108.033Z" stroke="#B5B5B5" stroke-opacity="0.2"/>
<path d="M557.01 108.161L561.508 108.167C616.46 108.233 661.533 152.831 662.18 207.779L662.229 211.995L558.231 211.87L557.01 108.161Z" stroke="#B5B5B5" stroke-opacity="0.2"/>
<path d="M664.195 108.289L668.694 108.295C723.646 108.361 768.718 152.959 769.365 207.907L769.415 212.123L665.417 211.998L664.195 108.289Z" stroke="#B5B5B5" stroke-opacity="0.2"/>
<path d="M771.383 108.419L775.881 108.425C830.833 108.491 875.906 153.089 876.553 208.037L876.602 212.253L772.604 212.128L771.383 108.419Z" stroke="#B5B5B5" stroke-opacity="0.2"/>
<path d="M878.568 108.547L883.067 108.552C938.019 108.618 983.091 153.216 983.738 208.165L983.788 212.38L879.79 212.255L878.568 108.547Z" stroke="#B5B5B5" stroke-opacity="0.2"/>
<path d="M22.3408 214.409L26.8392 214.414C81.7915 214.48 126.864 259.078 127.511 314.027L127.56 318.242L23.562 318.117L22.3408 214.409Z" stroke="#B5B5B5" stroke-opacity="0.2"/>
<path d="M129.527 214.537L134.026 214.542C188.978 214.608 234.05 259.206 234.697 314.155L234.747 318.37L130.749 318.245L129.527 214.537Z" stroke="#B5B5B5" stroke-opacity="0.2"/>
<path d="M236.711 214.666L241.209 214.671C296.162 214.737 341.234 259.335 341.881 314.284L341.93 318.499L237.932 318.374L236.711 214.666Z" stroke="#B5B5B5" stroke-opacity="0.2"/>
<path d="M343.897 214.794L348.395 214.799C403.347 214.865 448.419 259.463 449.066 314.412L449.116 318.627L345.118 318.502L343.897 214.794Z" stroke="#B5B5B5" stroke-opacity="0.2"/>
<path d="M451.084 214.923L455.582 214.929C510.535 214.995 555.607 259.593 556.254 314.541L556.304 318.756L452.305 318.632L451.084 214.923Z" stroke="#B5B5B5" stroke-opacity="0.2"/>
<path d="M558.27 215.051L562.768 215.057C617.72 215.123 662.792 259.721 663.439 314.669L663.489 318.884L559.491 318.76L558.27 215.051Z" stroke="#B5B5B5" stroke-opacity="0.2"/>
<path d="M665.455 215.18L669.953 215.186C724.906 215.252 769.978 259.85 770.625 314.798L770.675 319.013L666.676 318.889L665.455 215.18Z" stroke="#B5B5B5" stroke-opacity="0.2"/>
<path d="M772.643 215.309L777.141 215.315C832.093 215.381 877.165 259.979 877.812 314.927L877.862 319.142L773.864 319.018L772.643 215.309Z" stroke="#B5B5B5" stroke-opacity="0.2"/>
<path d="M879.826 215.437L884.325 215.442C939.277 215.508 984.349 260.106 984.996 315.055L985.046 319.27L881.047 319.145L879.826 215.437Z" stroke="#B5B5B5" stroke-opacity="0.2"/>
<path d="M-83.5869 321.17L-79.0885 321.175C-24.1362 321.241 20.936 365.839 21.583 420.788L21.6326 425.003L-82.3657 424.878L-83.5869 321.17Z" stroke="#B5B5B5" stroke-opacity="0.2"/>
<path d="M23.5996 321.299L28.098 321.304C83.0503 321.37 128.122 365.968 128.77 420.917L128.819 425.132L24.8208 425.007L23.5996 321.299Z" stroke="#B5B5B5" stroke-opacity="0.2"/>
<path d="M130.785 321.427L135.284 321.433C190.236 321.499 235.308 366.097 235.955 421.045L236.005 425.26L132.006 425.136L130.785 321.427Z" stroke="#B5B5B5" stroke-opacity="0.2"/>
<path d="M237.971 321.556L242.469 321.561C297.421 321.627 342.494 366.225 343.141 421.174L343.19 425.389L239.192 425.264L237.971 321.556Z" stroke="#B5B5B5" stroke-opacity="0.2"/>
<path d="M345.156 321.684L349.655 321.689C404.607 321.755 449.679 366.353 450.326 421.302L450.376 425.517L346.377 425.392L345.156 321.684Z" stroke="#B5B5B5" stroke-opacity="0.2"/>
<path d="M452.342 321.812L456.84 321.818C511.792 321.884 556.865 366.482 557.512 421.43L557.561 425.645L453.563 425.521L452.342 321.812Z" stroke="#B5B5B5" stroke-opacity="0.2"/>
<path d="M559.527 321.941L564.026 321.947C618.978 322.012 664.05 366.61 664.697 421.559L664.747 425.774L560.749 425.65L559.527 321.941Z" stroke="#B5B5B5" stroke-opacity="0.2"/>
<path d="M666.713 322.07L671.211 322.075C726.164 322.141 771.236 366.739 771.883 421.688L771.932 425.903L667.934 425.778L666.713 322.07Z" stroke="#B5B5B5" stroke-opacity="0.2"/>
<path d="M773.9 322.198L778.399 322.204C833.351 322.269 878.423 366.867 879.07 421.816L879.12 426.031L775.122 425.907L773.9 322.198Z" stroke="#B5B5B5" stroke-opacity="0.2"/>
<path d="M881.086 322.328L885.584 322.333C940.537 322.399 985.609 366.997 986.256 421.945L986.305 426.161L882.307 426.036L881.086 322.328Z" stroke="#B5B5B5" stroke-opacity="0.2"/>
<path d="M-82.3271 428.06L-77.8288 428.065C-22.8765 428.131 22.1957 472.729 22.8428 527.678L22.8924 531.893L-81.1059 531.768L-82.3271 428.06Z" stroke="#B5B5B5" stroke-opacity="0.2"/>
<path d="M24.8584 428.188L29.3568 428.193C84.3091 428.259 129.381 472.857 130.028 527.806L130.078 532.021L26.0796 531.896L24.8584 428.188Z" stroke="#B5B5B5" stroke-opacity="0.2"/>
<path d="M132.045 428.317L136.543 428.322C191.496 428.388 236.568 472.986 237.215 527.935L237.264 532.15L133.266 532.025L132.045 428.317Z" stroke="#B5B5B5" stroke-opacity="0.2"/>
<path d="M239.23 428.445L243.729 428.451C298.681 428.516 343.753 473.114 344.4 528.063L344.45 532.278L240.452 532.154L239.23 428.445Z" stroke="#B5B5B5" stroke-opacity="0.2"/>
<path d="M346.416 428.574L350.914 428.58C405.867 428.645 450.939 473.243 451.586 528.192L451.636 532.407L347.637 532.283L346.416 428.574Z" stroke="#B5B5B5" stroke-opacity="0.2"/>
<path d="M453.602 428.702L458.1 428.707C513.052 428.773 558.124 473.371 558.771 528.319L558.821 532.535L454.823 532.41L453.602 428.702Z" stroke="#B5B5B5" stroke-opacity="0.2"/>
<path d="M560.785 428.831L565.284 428.836C620.236 428.902 665.308 473.5 665.955 528.448L666.005 532.664L562.006 532.539L560.785 428.831Z" stroke="#B5B5B5" stroke-opacity="0.2"/>
<path d="M667.973 428.96L672.471 428.965C727.423 429.031 772.496 473.629 773.143 528.578L773.192 532.793L669.194 532.669L667.973 428.96Z" stroke="#B5B5B5" stroke-opacity="0.2"/>
<path d="M775.158 429.088L779.657 429.094C834.609 429.159 879.681 473.757 880.328 528.706L880.378 532.921L776.379 532.797L775.158 429.088Z" stroke="#B5B5B5" stroke-opacity="0.2"/>
<path d="M882.344 429.217L886.842 429.222C941.794 429.288 986.867 473.886 987.514 528.834L987.563 533.05L883.565 532.925L882.344 429.217Z" stroke="#B5B5B5" stroke-opacity="0.2"/>
<path d="M-81.0693 534.949L-76.571 534.954C-21.6187 535.02 23.4535 579.618 24.1006 634.566L24.1502 638.782L-79.8481 638.657L-81.0693 534.949Z" stroke="#B5B5B5" stroke-opacity="0.2"/>
<path d="M26.1172 535.078L30.6156 535.083C85.5679 535.149 130.64 579.747 131.287 634.695L131.337 638.911L27.3384 638.786L26.1172 535.078Z" stroke="#B5B5B5" stroke-opacity="0.2"/>
<path d="M133.303 535.207L137.801 535.213C192.753 535.278 237.826 579.876 238.473 634.825L238.522 639.04L134.524 638.916L133.303 535.207Z" stroke="#B5B5B5" stroke-opacity="0.2"/>
<path d="M240.488 535.336L244.987 535.341C299.939 535.407 345.011 580.005 345.658 634.953L345.708 639.169L241.71 639.044L240.488 535.336Z" stroke="#B5B5B5" stroke-opacity="0.2"/>
<path d="M347.676 535.465L352.174 535.47C407.126 535.536 452.199 580.134 452.846 635.082L452.895 639.298L348.897 639.173L347.676 535.465Z" stroke="#B5B5B5" stroke-opacity="0.2"/>
<path d="M454.859 535.592L459.358 535.597C514.31 535.663 559.382 580.261 560.029 635.209L560.079 639.425L456.081 639.3L454.859 535.592Z" stroke="#B5B5B5" stroke-opacity="0.2"/>
<path d="M562.045 535.721L566.543 535.726C621.496 535.792 666.568 580.39 667.215 635.338L667.264 639.554L563.266 639.429L562.045 535.721Z" stroke="#B5B5B5" stroke-opacity="0.2"/>
<path d="M669.23 535.849L673.729 535.854C728.681 535.92 773.753 580.518 774.4 635.466L774.45 639.682L670.452 639.557L669.23 535.849Z" stroke="#B5B5B5" stroke-opacity="0.2"/>
<path d="M776.416 535.977L780.914 535.982C835.867 536.048 880.939 580.646 881.586 635.595L881.636 639.81L777.637 639.686L776.416 535.977Z" stroke="#B5B5B5" stroke-opacity="0.2"/>
<path d="M883.602 536.106L888.1 536.111C943.052 536.177 988.124 580.775 988.771 635.724L988.821 639.939L884.823 639.815L883.602 536.106Z" stroke="#B5B5B5" stroke-opacity="0.2"/>
<path d="M27.375 641.968L31.8734 641.973C86.8257 642.039 131.898 686.637 132.545 741.586L132.595 745.801L28.5962 745.677L27.375 641.968Z" stroke="#B5B5B5" stroke-opacity="0.2"/>
<path d="M134.561 642.096L139.059 642.101C194.011 642.167 239.083 686.765 239.73 741.714L239.78 745.929L135.782 745.804L134.561 642.096Z" stroke="#B5B5B5" stroke-opacity="0.2"/>
<path d="M241.748 642.225L246.246 642.23C301.199 642.296 346.271 686.894 346.918 741.843L346.968 746.058L242.969 745.933L241.748 642.225Z" stroke="#B5B5B5" stroke-opacity="0.2"/>
<path d="M348.934 642.353L353.432 642.358C408.384 642.424 453.456 687.022 454.104 741.971L454.153 746.186L350.155 746.062L348.934 642.353Z" stroke="#B5B5B5" stroke-opacity="0.2"/>
<path d="M456.119 642.482L460.618 642.487C515.57 642.553 560.642 687.151 561.289 742.099L561.339 746.315L457.34 746.19L456.119 642.482Z" stroke="#B5B5B5" stroke-opacity="0.2"/>
<path d="M563.305 642.61L567.803 642.615C622.755 642.681 667.828 687.279 668.475 742.228L668.524 746.443L564.526 746.318L563.305 642.61Z" stroke="#B5B5B5" stroke-opacity="0.2"/>
<path d="M670.49 642.738L674.989 642.744C729.941 642.81 775.013 687.408 775.66 742.356L775.71 746.572L671.711 746.447L670.49 642.738Z" stroke="#B5B5B5" stroke-opacity="0.2"/>
<path d="M777.676 642.869L782.174 642.874C837.126 642.94 882.199 687.538 882.846 742.487L882.895 746.702L778.897 746.577L777.676 642.869Z" stroke="#B5B5B5" stroke-opacity="0.2"/>
<path d="M884.861 642.996L889.36 643.002C944.312 643.068 989.384 687.666 990.031 742.614L990.081 746.83L886.083 746.705L884.861 642.996Z" stroke="#B5B5B5" stroke-opacity="0.2"/>
<path d="M135.82 748.986L140.319 748.991C195.271 749.057 240.343 793.655 240.99 848.604L241.04 852.819L137.042 852.694L135.82 748.986Z" stroke="#B5B5B5" stroke-opacity="0.2"/>
<path d="M243.006 749.115L247.504 749.12C302.457 749.186 347.529 793.784 348.176 848.733L348.225 852.948L244.227 852.823L243.006 749.115Z" stroke="#B5B5B5" stroke-opacity="0.2"/>
<path d="M350.191 749.244L354.69 749.249C409.642 749.315 454.714 793.913 455.361 848.862L455.411 853.077L351.413 852.952L350.191 749.244Z" stroke="#B5B5B5" stroke-opacity="0.2"/>
<path d="M457.377 749.372L461.875 749.378C516.828 749.444 561.9 794.042 562.547 848.99L562.596 853.206L458.598 853.081L457.377 749.372Z" stroke="#B5B5B5" stroke-opacity="0.2"/>
<path d="M564.563 749.5L569.061 749.506C624.013 749.572 669.085 794.17 669.732 849.118L669.782 853.334L565.784 853.209L564.563 749.5Z" stroke="#B5B5B5" stroke-opacity="0.2"/>
<path d="M671.748 749.628L676.246 749.634C731.199 749.7 776.271 794.298 776.918 849.246L776.968 853.462L672.969 853.337L671.748 749.628Z" stroke="#B5B5B5" stroke-opacity="0.2"/>
<path d="M778.934 749.757L783.432 749.762C838.384 749.828 883.456 794.426 884.104 849.375L884.153 853.59L780.155 853.465L778.934 749.757Z" stroke="#B5B5B5" stroke-opacity="0.2"/>
<path d="M886.121 749.886L890.619 749.891C945.572 749.957 990.644 794.555 991.291 849.504L991.341 853.719L887.342 853.594L886.121 749.886Z" stroke="#B5B5B5" stroke-opacity="0.2"/>
<path d="M351.451 856.133L355.95 856.139C410.902 856.205 455.974 900.803 456.621 955.751L456.671 959.966L352.672 959.842L351.451 856.133Z" stroke="#B5B5B5" stroke-opacity="0.2"/>
<path d="M458.635 856.26L463.133 856.266C518.085 856.332 563.158 900.93 563.805 955.878L563.854 960.093L459.856 959.969L458.635 856.26Z" stroke="#B5B5B5" stroke-opacity="0.2"/>
<path d="M565.822 856.39L570.321 856.395C625.273 856.461 670.345 901.059 670.992 956.008L671.042 960.223L567.043 960.098L565.822 856.39Z" stroke="#B5B5B5" stroke-opacity="0.2"/>
<path d="M673.008 856.518L677.506 856.523C732.458 856.589 777.531 901.187 778.178 956.136L778.227 960.351L674.229 960.226L673.008 856.518Z" stroke="#B5B5B5" stroke-opacity="0.2"/>
<path d="M780.193 856.648L784.692 856.653C839.644 856.719 884.716 901.317 885.363 956.266L885.413 960.481L781.415 960.356L780.193 856.648Z" stroke="#B5B5B5" stroke-opacity="0.2"/>
<path d="M459.895 963.153L464.393 963.158C519.345 963.224 564.417 1007.82 565.064 1062.77L565.114 1066.99L461.116 1066.86L459.895 963.153Z" stroke="#B5B5B5" stroke-opacity="0.2"/>
<path d="M567.08 963.279L571.578 963.285C626.531 963.351 671.603 1007.95 672.25 1062.9L672.3 1067.11L568.301 1066.99L567.08 963.279Z" stroke="#B5B5B5" stroke-opacity="0.2"/>
<path d="M674.266 963.408L678.764 963.413C733.716 963.479 778.788 1008.08 779.436 1063.03L779.485 1067.24L675.487 1067.12L674.266 963.408Z" stroke="#B5B5B5" stroke-opacity="0.2"/>
<path d="M983.953 0.500565L988.452 0.505959C1043.4 0.571848 1088.48 45.1699 1089.12 100.118L1089.17 104.334L985.174 104.209L983.953 0.500565Z" stroke="#B5B5B5" stroke-opacity="0.2"/>
<path d="M1091.14 0.629532L1095.64 0.634926C1150.59 0.700815 1195.66 45.2988 1196.31 100.247L1196.36 104.463L1092.36 104.338L1091.14 0.629532Z" stroke="#B5B5B5" stroke-opacity="0.2"/>
<path d="M1198.33 0.758011L1202.82 0.763405C1257.78 0.829294 1302.85 45.4273 1303.5 100.376L1303.55 104.591L1199.55 104.466L1198.33 0.758011Z" stroke="#B5B5B5" stroke-opacity="0.2"/>
<path d="M985.213 107.39L989.711 107.395C1044.66 107.461 1089.74 152.059 1090.38 207.008L1090.43 211.223L986.434 211.098L985.213 107.39Z" stroke="#B5B5B5" stroke-opacity="0.2"/>
<path d="M1092.4 107.518L1096.9 107.524C1151.85 107.59 1196.92 152.188 1197.57 207.136L1197.62 211.352L1093.62 211.227L1092.4 107.518Z" stroke="#B5B5B5" stroke-opacity="0.2"/>
<path d="M986.471 214.28L990.969 214.286C1045.92 214.352 1090.99 258.95 1091.64 313.898L1091.69 318.114L987.692 317.989L986.471 214.28Z" stroke="#B5B5B5" stroke-opacity="0.2"/>
<path d="M991.506 641.84L996.004 641.845C1050.96 641.911 1096.03 686.509 1096.68 741.457L1096.73 745.673L992.727 745.548L991.506 641.84Z" stroke="#B5B5B5" stroke-opacity="0.2"/>
<path d="M992.764 748.729L997.262 748.734C1052.21 748.8 1097.29 793.398 1097.93 848.346L1097.98 852.562L993.985 852.437L992.764 748.729Z" stroke="#B5B5B5" stroke-opacity="0.2"/>
<path d="M1099.95 748.857L1104.45 748.863C1159.4 748.929 1204.47 793.527 1205.12 848.475L1205.17 852.691L1101.17 852.566L1099.95 748.857Z" stroke="#B5B5B5" stroke-opacity="0.2"/>
<path d="M994.023 855.619L998.522 855.624C1053.47 855.69 1098.55 900.288 1099.19 955.237L1099.24 959.452L995.245 959.327L994.023 855.619Z" stroke="#B5B5B5" stroke-opacity="0.2"/>
<path d="M1101.21 855.748L1105.71 855.753C1160.66 855.819 1205.73 900.417 1206.38 955.366L1206.43 959.581L1102.43 959.456L1101.21 855.748Z" stroke="#B5B5B5" stroke-opacity="0.2"/>
<path d="M1208.39 855.877L1212.89 855.882C1267.85 855.948 1312.92 900.546 1313.56 955.495L1313.61 959.71L1209.62 959.585L1208.39 855.877Z" stroke="#B5B5B5" stroke-opacity="0.2"/>
<path d="M1315.58 856.004L1320.08 856.01C1375.03 856.076 1420.1 900.674 1420.75 955.622L1420.8 959.838L1316.8 959.713L1315.58 856.004Z" stroke="#B5B5B5" stroke-opacity="0.2"/>
<path d="M995.283 962.51L999.782 962.515C1054.73 962.581 1099.81 1007.18 1100.45 1062.13L1100.5 1066.34L996.504 1066.22L995.283 962.51Z" stroke="#B5B5B5" stroke-opacity="0.2"/>
<path d="M1102.47 962.638L1106.97 962.643C1161.92 962.709 1206.99 1007.31 1207.64 1062.26L1207.69 1066.47L1103.69 1066.35L1102.47 962.638Z" stroke="#B5B5B5" stroke-opacity="0.2"/>
<path d="M1209.65 962.766L1214.15 962.772C1269.1 962.838 1314.18 1007.44 1314.82 1062.38L1314.87 1066.6L1210.88 1066.47L1209.65 962.766Z" stroke="#B5B5B5" stroke-opacity="0.2"/>
<path d="M1316.84 962.895L1321.34 962.9C1376.29 962.966 1421.36 1007.56 1422.01 1062.51L1422.06 1066.73L1318.06 1066.6L1316.84 962.895Z" stroke="#B5B5B5" stroke-opacity="0.2"/>
<path d="M1424.03 963.023L1428.52 963.028C1483.48 963.094 1528.55 1007.69 1529.2 1062.64L1529.24 1066.86L1425.25 1066.73L1424.03 963.023Z" stroke="#B5B5B5" stroke-opacity="0.2"/>
<path d="M1852.77 963.537L1857.27 963.543C1912.22 963.608 1957.29 1008.21 1957.94 1063.16L1957.99 1067.37L1853.99 1067.25L1852.77 963.537Z" stroke="#B5B5B5" stroke-opacity="0.2"/>
<path d="M1305.51 0.886032L1310.01 0.891426C1364.96 0.957314 1410.03 45.5553 1410.68 100.504L1410.73 104.719L1306.73 104.595L1305.51 0.886032Z" stroke="#B5B5B5" stroke-opacity="0.2"/>
<path d="M1412.7 1.01451L1417.2 1.0199C1472.15 1.08579 1517.22 45.6838 1517.87 100.632L1517.92 104.848L1413.92 104.723L1412.7 1.01451Z" stroke="#B5B5B5" stroke-opacity="0.2"/>
<path d="M1519.88 1.14299L1524.38 1.14838C1579.33 1.21427 1624.41 45.8123 1625.05 100.761L1625.1 104.976L1521.1 104.851L1519.88 1.14299Z" stroke="#B5B5B5" stroke-opacity="0.2"/>
<path d="M1627.07 1.27147L1631.57 1.27686C1686.52 1.34275 1731.59 45.9408 1732.24 100.889L1732.29 105.105L1628.29 104.98L1627.07 1.27147Z" stroke="#B5B5B5" stroke-opacity="0.2"/>
<path d="M1734.25 1.40096L1738.75 1.40635C1793.7 1.47224 1838.78 46.0702 1839.42 101.019L1839.47 105.234L1735.48 105.109L1734.25 1.40096Z" stroke="#B5B5B5" stroke-opacity="0.2"/>
<path d="M1841.44 1.52943L1845.94 1.53483C1900.89 1.60072 1945.96 46.1987 1946.61 101.147L1946.66 105.363L1842.66 105.238L1841.44 1.52943Z" stroke="#B5B5B5" stroke-opacity="0.2"/>
<path d="M1199.58 107.648L1204.08 107.653C1259.03 107.719 1304.11 152.317 1304.75 207.266L1304.8 211.481L1200.81 211.356L1199.58 107.648Z" stroke="#B5B5B5" stroke-opacity="0.2"/>
<path d="M1306.77 107.777L1311.27 107.782C1366.22 107.848 1411.29 152.446 1411.94 207.395L1411.99 211.61L1307.99 211.485L1306.77 107.777Z" stroke="#B5B5B5" stroke-opacity="0.2"/>
<path d="M1413.96 107.904L1418.45 107.909C1473.41 107.975 1518.48 152.573 1519.12 207.522L1519.17 211.737L1415.18 211.612L1413.96 107.904Z" stroke="#B5B5B5" stroke-opacity="0.2"/>
<path d="M1521.14 108.033L1525.64 108.038C1580.59 108.104 1625.67 152.702 1626.31 207.651L1626.36 211.866L1522.36 211.741L1521.14 108.033Z" stroke="#B5B5B5" stroke-opacity="0.2"/>
<path d="M1628.33 108.161L1632.82 108.167C1687.78 108.233 1732.85 152.831 1733.5 207.779L1733.55 211.995L1629.55 211.87L1628.33 108.161Z" stroke="#B5B5B5" stroke-opacity="0.2"/>
<path d="M1735.51 108.289L1740.01 108.295C1794.96 108.361 1840.03 152.959 1840.68 207.907L1840.73 212.123L1736.73 211.998L1735.51 108.289Z" stroke="#B5B5B5" stroke-opacity="0.2"/>
<path d="M1842.7 108.419L1847.2 108.425C1902.15 108.491 1947.22 153.089 1947.87 208.037L1947.92 212.253L1843.92 212.128L1842.7 108.419Z" stroke="#B5B5B5" stroke-opacity="0.2"/>
<path d="M1093.66 214.409L1098.15 214.414C1153.11 214.48 1198.18 259.078 1198.83 314.027L1198.88 318.242L1094.88 318.117L1093.66 214.409Z" stroke="#B5B5B5" stroke-opacity="0.2"/>
<path d="M1200.84 214.537L1205.34 214.542C1260.29 214.608 1305.37 259.206 1306.01 314.155L1306.06 318.37L1202.06 318.245L1200.84 214.537Z" stroke="#B5B5B5" stroke-opacity="0.2"/>
<path d="M1308.03 214.666L1312.53 214.671C1367.48 214.737 1412.55 259.335 1413.2 314.284L1413.25 318.499L1309.25 318.374L1308.03 214.666Z" stroke="#B5B5B5" stroke-opacity="0.2"/>
<path d="M1415.21 214.794L1419.71 214.799C1474.66 214.865 1519.74 259.463 1520.38 314.412L1520.43 318.627L1416.43 318.502L1415.21 214.794Z" stroke="#B5B5B5" stroke-opacity="0.2"/>
<path d="M1522.4 214.923L1526.9 214.929C1581.85 214.995 1626.92 259.593 1627.57 314.541L1627.62 318.756L1523.62 318.632L1522.4 214.923Z" stroke="#B5B5B5" stroke-opacity="0.2"/>
<path d="M1629.59 215.051L1634.08 215.057C1689.04 215.123 1734.11 259.721 1734.76 314.669L1734.81 318.884L1630.81 318.76L1629.59 215.051Z" stroke="#B5B5B5" stroke-opacity="0.2"/>
<path d="M1736.77 215.18L1741.27 215.186C1796.22 215.252 1841.29 259.85 1841.94 314.798L1841.99 319.013L1737.99 318.889L1736.77 215.18Z" stroke="#B5B5B5" stroke-opacity="0.2"/>
<path d="M1843.96 215.309L1848.46 215.315C1903.41 215.381 1948.48 259.979 1949.13 314.927L1949.18 319.142L1845.18 319.018L1843.96 215.309Z" stroke="#B5B5B5" stroke-opacity="0.2"/>
<path d="M987.73 321.17L992.229 321.175C1047.18 321.241 1092.25 365.839 1092.9 420.788L1092.95 425.003L988.952 424.878L987.73 321.17Z" stroke="#B5B5B5" stroke-opacity="0.2"/>
<path d="M1094.92 321.299L1099.41 321.304C1154.37 321.37 1199.44 365.968 1200.09 420.917L1200.14 425.132L1096.14 425.007L1094.92 321.299Z" stroke="#B5B5B5" stroke-opacity="0.2"/>
<path d="M1202.1 321.427L1206.6 321.433C1261.55 321.499 1306.62 366.097 1307.27 421.045L1307.32 425.26L1203.32 425.136L1202.1 321.427Z" stroke="#B5B5B5" stroke-opacity="0.2"/>
<path d="M1309.29 321.556L1313.79 321.561C1368.74 321.627 1413.81 366.225 1414.46 421.174L1414.51 425.389L1310.51 425.264L1309.29 321.556Z" stroke="#B5B5B5" stroke-opacity="0.2"/>
<path d="M1416.47 321.684L1420.97 321.689C1475.92 321.755 1521 366.353 1521.64 421.302L1521.69 425.517L1417.69 425.392L1416.47 321.684Z" stroke="#B5B5B5" stroke-opacity="0.2"/>
<path d="M1523.66 321.812L1528.16 321.818C1583.11 321.884 1628.18 366.482 1628.83 421.43L1628.88 425.645L1524.88 425.521L1523.66 321.812Z" stroke="#B5B5B5" stroke-opacity="0.2"/>
<path d="M1630.84 321.941L1635.34 321.947C1690.29 322.012 1735.37 366.61 1736.01 421.559L1736.06 425.774L1632.06 425.65L1630.84 321.941Z" stroke="#B5B5B5" stroke-opacity="0.2"/>
<path d="M1738.03 322.07L1742.53 322.075C1797.48 322.141 1842.55 366.739 1843.2 421.688L1843.25 425.903L1739.25 425.778L1738.03 322.07Z" stroke="#B5B5B5" stroke-opacity="0.2"/>
<path d="M1845.22 322.198L1849.72 322.204C1904.67 322.269 1949.74 366.867 1950.39 421.816L1950.44 426.031L1846.44 425.907L1845.22 322.198Z" stroke="#B5B5B5" stroke-opacity="0.2"/>
<path d="M988.988 428.06L993.487 428.065C1048.44 428.131 1093.51 472.729 1094.16 527.678L1094.21 531.893L990.21 531.768L988.988 428.06Z" stroke="#B5B5B5" stroke-opacity="0.2"/>
<path d="M1096.17 428.188L1100.67 428.193C1155.62 428.259 1200.7 472.857 1201.34 527.806L1201.39 532.021L1097.4 531.896L1096.17 428.188Z" stroke="#B5B5B5" stroke-opacity="0.2"/>
<path d="M1203.36 428.317L1207.86 428.322C1262.81 428.388 1307.88 472.986 1308.53 527.935L1308.58 532.15L1204.58 532.025L1203.36 428.317Z" stroke="#B5B5B5" stroke-opacity="0.2"/>
<path d="M1310.55 428.445L1315.05 428.451C1370 428.516 1415.07 473.114 1415.72 528.063L1415.77 532.278L1311.77 532.154L1310.55 428.445Z" stroke="#B5B5B5" stroke-opacity="0.2"/>
<path d="M1417.73 428.574L1422.23 428.58C1477.18 428.645 1522.26 473.243 1522.9 528.192L1522.95 532.407L1418.95 532.283L1417.73 428.574Z" stroke="#B5B5B5" stroke-opacity="0.2"/>
<path d="M1524.92 428.702L1529.42 428.707C1584.37 428.773 1629.44 473.371 1630.09 528.319L1630.14 532.535L1526.14 532.41L1524.92 428.702Z" stroke="#B5B5B5" stroke-opacity="0.2"/>
<path d="M1632.1 428.831L1636.6 428.836C1691.55 428.902 1736.62 473.5 1737.27 528.448L1737.32 532.664L1633.32 532.539L1632.1 428.831Z" stroke="#B5B5B5" stroke-opacity="0.2"/>
<path d="M1739.29 428.96L1743.79 428.965C1798.74 429.031 1843.81 473.629 1844.46 528.578L1844.51 532.793L1740.51 532.669L1739.29 428.96Z" stroke="#B5B5B5" stroke-opacity="0.2"/>
<path d="M1846.47 429.088L1850.97 429.094C1905.93 429.159 1951 473.757 1951.64 528.706L1951.69 532.921L1847.7 532.797L1846.47 429.088Z" stroke="#B5B5B5" stroke-opacity="0.2"/>
<path d="M990.248 534.949L994.746 534.954C1049.7 535.02 1094.77 579.618 1095.42 634.566L1095.47 638.782L991.469 638.657L990.248 534.949Z" stroke="#B5B5B5" stroke-opacity="0.2"/>
<path d="M1097.43 535.078L1101.93 535.083C1156.88 535.149 1201.96 579.747 1202.6 634.695L1202.65 638.911L1098.65 638.786L1097.43 535.078Z" stroke="#B5B5B5" stroke-opacity="0.2"/>
<path d="M1204.62 535.207L1209.12 535.213C1264.07 535.278 1309.14 579.876 1309.79 634.825L1309.84 639.04L1205.84 638.916L1204.62 535.207Z" stroke="#B5B5B5" stroke-opacity="0.2"/>
<path d="M1311.8 535.336L1316.3 535.341C1371.26 535.407 1416.33 580.005 1416.97 634.953L1417.02 639.169L1313.03 639.044L1311.8 535.336Z" stroke="#B5B5B5" stroke-opacity="0.2"/>
<path d="M1418.99 535.465L1423.49 535.47C1478.44 535.536 1523.52 580.134 1524.16 635.082L1524.21 639.298L1420.21 639.173L1418.99 535.465Z" stroke="#B5B5B5" stroke-opacity="0.2"/>
<path d="M1526.18 535.592L1530.67 535.597C1585.63 535.663 1630.7 580.261 1631.35 635.209L1631.4 639.425L1527.4 639.3L1526.18 535.592Z" stroke="#B5B5B5" stroke-opacity="0.2"/>
<path d="M1633.36 535.721L1637.86 535.726C1692.81 535.792 1737.88 580.39 1738.53 635.338L1738.58 639.554L1634.58 639.429L1633.36 535.721Z" stroke="#B5B5B5" stroke-opacity="0.2"/>
<path d="M1740.55 535.849L1745.05 535.854C1800 535.92 1845.07 580.518 1845.72 635.466L1845.77 639.682L1741.77 639.557L1740.55 535.849Z" stroke="#B5B5B5" stroke-opacity="0.2"/>
<path d="M1847.73 535.977L1852.23 535.982C1907.18 536.048 1952.26 580.646 1952.9 635.595L1952.95 639.81L1848.95 639.686L1847.73 535.977Z" stroke="#B5B5B5" stroke-opacity="0.2"/>
<path d="M1098.69 641.968L1103.19 641.973C1158.14 642.039 1203.21 686.637 1203.86 741.586L1203.91 745.801L1099.91 745.677L1098.69 641.968Z" stroke="#B5B5B5" stroke-opacity="0.2"/>
<path d="M1205.88 642.096L1210.38 642.101C1265.33 642.167 1310.4 686.765 1311.05 741.714L1311.1 745.929L1207.1 745.804L1205.88 642.096Z" stroke="#B5B5B5" stroke-opacity="0.2"/>
<path d="M1313.06 642.225L1317.56 642.23C1372.52 642.296 1417.59 686.894 1418.23 741.843L1418.28 746.058L1314.29 745.933L1313.06 642.225Z" stroke="#B5B5B5" stroke-opacity="0.2"/>
<path d="M1420.25 642.353L1424.75 642.358C1479.7 642.424 1524.77 687.022 1525.42 741.971L1525.47 746.186L1421.47 746.062L1420.25 642.353Z" stroke="#B5B5B5" stroke-opacity="0.2"/>
<path d="M1527.44 642.482L1531.93 642.487C1586.89 642.553 1631.96 687.151 1632.61 742.099L1632.66 746.315L1528.66 746.19L1527.44 642.482Z" stroke="#B5B5B5" stroke-opacity="0.2"/>
<path d="M1634.62 642.61L1639.12 642.615C1694.07 642.681 1739.14 687.279 1739.79 742.228L1739.84 746.443L1635.84 746.318L1634.62 642.61Z" stroke="#B5B5B5" stroke-opacity="0.2"/>
<path d="M1741.81 642.738L1746.31 642.744C1801.26 642.81 1846.33 687.408 1846.98 742.356L1847.03 746.572L1743.03 746.447L1741.81 642.738Z" stroke="#B5B5B5" stroke-opacity="0.2"/>
<path d="M1848.99 642.869L1853.49 642.874C1908.44 642.94 1953.52 687.538 1954.16 742.487L1954.21 746.702L1850.21 746.577L1848.99 642.869Z" stroke="#B5B5B5" stroke-opacity="0.2"/>
<path d="M1207.14 748.986L1211.64 748.991C1266.59 749.057 1311.66 793.655 1312.31 848.604L1312.36 852.819L1208.36 852.694L1207.14 748.986Z" stroke="#B5B5B5" stroke-opacity="0.2"/>
<path d="M1314.32 749.115L1318.82 749.12C1373.77 749.186 1418.85 793.784 1419.49 848.733L1419.54 852.948L1315.54 852.823L1314.32 749.115Z" stroke="#B5B5B5" stroke-opacity="0.2"/>
<path d="M1421.51 749.244L1426.01 749.249C1480.96 749.315 1526.03 793.913 1526.68 848.862L1526.73 853.077L1422.73 852.952L1421.51 749.244Z" stroke="#B5B5B5" stroke-opacity="0.2"/>
<path d="M1528.69 749.372L1533.19 749.378C1588.14 749.444 1633.22 794.042 1633.86 848.99L1633.91 853.206L1529.91 853.081L1528.69 749.372Z" stroke="#B5B5B5" stroke-opacity="0.2"/>
<path d="M1635.88 749.5L1640.38 749.506C1695.33 749.572 1740.4 794.17 1741.05 849.118L1741.1 853.334L1637.1 853.209L1635.88 749.5Z" stroke="#B5B5B5" stroke-opacity="0.2"/>
<path d="M1743.06 749.628L1747.56 749.634C1802.52 749.7 1847.59 794.298 1848.23 849.246L1848.28 853.462L1744.29 853.337L1743.06 749.628Z" stroke="#B5B5B5" stroke-opacity="0.2"/>
<path d="M1850.25 749.757L1854.75 749.762C1909.7 749.828 1954.77 794.426 1955.42 849.375L1955.47 853.59L1851.47 853.465L1850.25 749.757Z" stroke="#B5B5B5" stroke-opacity="0.2"/>
<path d="M1422.77 856.133L1427.27 856.139C1482.22 856.205 1527.29 900.803 1527.94 955.751L1527.99 959.966L1423.99 959.842L1422.77 856.133Z" stroke="#B5B5B5" stroke-opacity="0.2"/>
<path d="M1529.95 856.26L1534.45 856.266C1589.4 856.332 1634.47 900.93 1635.12 955.878L1635.17 960.093L1531.17 959.969L1529.95 856.26Z" stroke="#B5B5B5" stroke-opacity="0.2"/>
<path d="M1637.14 856.39L1641.64 856.395C1696.59 856.461 1741.66 901.059 1742.31 956.008L1742.36 960.223L1638.36 960.098L1637.14 856.39Z" stroke="#B5B5B5" stroke-opacity="0.2"/>
<path d="M1744.32 856.518L1748.82 856.523C1803.77 856.589 1848.85 901.187 1849.49 956.136L1849.54 960.351L1745.55 960.226L1744.32 856.518Z" stroke="#B5B5B5" stroke-opacity="0.2"/>
<path d="M1851.51 856.648L1856.01 856.653C1910.96 856.719 1956.03 901.317 1956.68 956.266L1956.73 960.481L1852.73 960.356L1851.51 856.648Z" stroke="#B5B5B5" stroke-opacity="0.2"/>
<path d="M1531.21 963.153L1535.71 963.158C1590.66 963.224 1635.73 1007.82 1636.38 1062.77L1636.43 1066.99L1532.43 1066.86L1531.21 963.153Z" stroke="#B5B5B5" stroke-opacity="0.2"/>
<path d="M1638.4 963.279L1642.89 963.285C1697.85 963.351 1742.92 1007.95 1743.57 1062.9L1743.62 1067.11L1639.62 1066.99L1638.4 963.279Z" stroke="#B5B5B5" stroke-opacity="0.2"/>
<path d="M1745.58 963.408L1750.08 963.413C1805.03 963.479 1850.1 1008.08 1850.75 1063.03L1850.8 1067.24L1746.8 1067.12L1745.58 963.408Z" stroke="#B5B5B5" stroke-opacity="0.2"/>
</svg>
