<svg width="16" height="15" viewBox="0 0 16 15" fill="none" xmlns="http://www.w3.org/2000/svg">
<path d="M14.8395 7.49999C14.8395 9.27694 14.1336 10.9811 12.8771 12.2376C11.6206 13.4941 9.9164 14.2 8.13945 14.2C6.3625 14.2 4.65833 13.4941 3.40184 12.2376C2.14534 10.9811 1.43945 9.27694 1.43945 7.49999C1.43945 5.72304 2.14534 4.01887 3.40184 2.76237C4.65833 1.50588 6.3625 0.799988 8.13945 0.799988C9.9164 0.799988 11.6206 1.50588 12.8771 2.76237C14.1336 4.01887 14.8395 5.72304 14.8395 7.49999ZM9.1294 4.88994C9.39195 4.62739 9.53945 4.27129 9.53945 3.89999C9.53945 3.52868 9.39195 3.17259 9.1294 2.91004C8.86685 2.64749 8.51076 2.49999 8.13945 2.49999C7.76815 2.49999 7.41205 2.64749 7.1495 2.91004C6.88695 3.17259 6.73945 3.52868 6.73945 3.89999C6.73945 4.27129 6.88695 4.62739 7.1495 4.88994C7.41206 5.15249 7.76815 5.29999 8.13945 5.29999C8.51076 5.29999 8.86685 5.15249 9.1294 4.88994ZM7.23945 6.09999C6.86815 6.09999 6.51205 6.24749 6.2495 6.51004C5.98695 6.77259 5.83945 7.12868 5.83945 7.49999C5.83945 7.87129 5.98695 8.22739 6.2495 8.48994C6.39003 8.63046 6.55735 8.73803 6.73945 8.80766V11.1C6.73945 11.4713 6.88695 11.8274 7.1495 12.0899C7.41205 12.3525 7.76815 12.5 8.13945 12.5H9.03945C9.41076 12.5 9.76685 12.3525 10.0294 12.0899C10.292 11.8274 10.4395 11.4713 10.4395 11.1C10.4395 10.7287 10.292 10.3726 10.0294 10.11C9.88888 9.96951 9.72156 9.86195 9.53945 9.79232V7.49999C9.53945 7.12869 9.39195 6.77259 9.1294 6.51004C8.86685 6.24749 8.51076 6.09999 8.13945 6.09999H7.23945Z" fill="#9CA3AF" stroke="#9CA3AF"/>
</svg>
