<svg width="15" height="16" viewBox="0 0 15 16" fill="none" xmlns="http://www.w3.org/2000/svg">
<path fill-rule="evenodd" clip-rule="evenodd" d="M7.50078 15.2C9.41034 15.2 11.2417 14.4414 12.592 13.0912C13.9422 11.7409 14.7008 9.90956 14.7008 8C14.7008 6.09044 13.9422 4.25909 12.592 2.90883C11.2417 1.55857 9.41034 0.799999 7.50078 0.799999C5.59122 0.799999 3.75987 1.55857 2.40961 2.90883C1.05935 4.25909 0.300781 6.09044 0.300781 8C0.300781 9.90956 1.05935 11.7409 2.40961 13.0912C3.75987 14.4414 5.59122 15.2 7.50078 15.2ZM10.8371 6.8363C11.001 6.66656 11.0917 6.43922 11.0897 6.20324C11.0876 5.96726 10.993 5.74153 10.8261 5.57466C10.6593 5.4078 10.4335 5.31314 10.1975 5.31109C9.96157 5.30904 9.73422 5.39976 9.56448 5.5637L6.60078 8.5274L5.43708 7.3637C5.26734 7.19976 5.04 7.10904 4.80402 7.11109C4.56804 7.11314 4.34231 7.2078 4.17544 7.37466C4.00858 7.54153 3.91393 7.76726 3.91187 8.00324C3.90982 8.23922 4.00054 8.46656 4.16448 8.6363L5.96448 10.4363C6.13326 10.605 6.36213 10.6998 6.60078 10.6998C6.83943 10.6998 7.06831 10.605 7.23708 10.4363L10.8371 6.8363Z" fill="#1F82BD"/>
</svg>
