<svg width="75" height="79" viewBox="0 0 75 79" fill="none" xmlns="http://www.w3.org/2000/svg">
<path d="M39.5 35.8333C39.5 50.4875 35.2958 64.1625 28.0292 75.7125M13.6958 67.2125L13.9208 66.8375C19.7647 57.5539 22.8551 46.8031 22.8333 35.8333C22.8333 31.4131 24.5893 27.1738 27.7149 24.0482C30.8405 20.9226 35.0797 19.1667 39.5 19.1667C43.9203 19.1667 48.1595 20.9226 51.2851 24.0482C54.4107 27.1738 56.1667 31.4131 56.1667 35.8333C56.1667 40.0708 55.875 44.2458 55.3208 48.3333M46.4958 76.85C49.0676 71.7187 51.1491 66.356 52.7125 60.8333M68.7083 65.55C71.3958 56.1083 72.8333 46.1375 72.8333 35.8333C72.8347 29.9815 71.2954 24.2324 68.3703 19.164C65.4453 14.0957 61.2374 9.8867 56.1699 6.96021C51.1024 4.03371 45.3537 2.49284 39.5019 2.49252C33.65 2.49219 27.9012 4.03241 22.8333 6.95834M2 54.0167C4.66667 48.5208 6.16667 42.35 6.16667 35.8333C6.16667 29.7625 7.79167 24.0708 10.625 19.1667" stroke="#1F82BD" stroke-width="3" stroke-linecap="round" stroke-linejoin="round"/>
</svg>
