<svg width="948" height="792" viewBox="0 0 948 792" fill="none" xmlns="http://www.w3.org/2000/svg">
<path d="M618.8 -83.9415L620.413 -81.9594C655.266 -39.1174 648.79 23.867 605.948 58.7202L603.966 60.3326L539.246 -19.2217L618.8 -83.9415Z" fill="white" fill-opacity="0.08"/>
<path d="M684.868 -2.72983L686.481 -0.747773C721.334 42.0942 714.858 105.079 672.016 139.932L670.034 141.544L605.314 61.99L684.868 -2.72983Z" fill="white" fill-opacity="0.08"/>
<path d="M750.937 78.4819L752.549 80.464C787.402 123.306 780.926 186.29 738.084 221.144L736.102 222.756L671.382 143.202L750.937 78.4819Z" fill="white" fill-opacity="0.08"/>
<path d="M817.005 159.694L818.617 161.676C853.47 204.518 846.994 267.502 804.152 302.355L802.17 303.968L737.45 224.413L817.005 159.694Z" fill="white" fill-opacity="0.08"/>
<path d="M883.073 240.905L884.685 242.887C919.538 285.729 913.062 348.714 870.22 383.567L868.238 385.179L803.518 305.625L883.073 240.905Z" fill="white" fill-opacity="0.08"/>
<path d="M471.52 -99.0851L473.133 -97.103C507.986 -54.261 501.51 8.72334 458.668 43.5766L456.686 45.189L391.966 -34.3653L471.52 -99.0851Z" fill="white" fill-opacity="0.08"/>
<path d="M537.589 -17.8734L539.201 -15.8913C574.054 26.9507 567.578 89.9351 524.736 124.788L522.754 126.401L458.034 46.8464L537.589 -17.8734Z" fill="white" fill-opacity="0.08"/>
<path d="M603.657 63.3383L605.269 65.3204C640.122 108.162 633.646 171.147 590.804 206L588.822 207.612L524.102 128.058L603.657 63.3383Z" fill="white" fill-opacity="0.08"/>
<path d="M669.725 144.55L671.337 146.532C706.191 189.374 699.714 252.358 656.872 287.212L654.89 288.824L590.171 209.27L669.725 144.55Z" fill="white" fill-opacity="0.08"/>
<path d="M735.793 225.762L737.405 227.744C772.259 270.586 765.782 333.57 722.941 368.423L720.958 370.036L656.239 290.482L735.793 225.762Z" fill="white" fill-opacity="0.08"/>
<path d="M801.861 306.973L803.474 308.956C838.327 351.797 831.851 414.782 789.009 449.635L787.027 451.248L722.307 371.693L801.861 306.973Z" fill="white" fill-opacity="0.08"/>
<path d="M324.241 -114.229L325.853 -112.247C360.706 -69.4046 354.23 -6.42025 311.388 28.433L309.406 30.0454L244.686 -49.5089L324.241 -114.229Z" fill="white" fill-opacity="0.08"/>
<path d="M390.309 -33.017L391.921 -31.0349C426.774 11.807 420.298 74.7914 377.456 109.645L375.474 111.257L310.754 31.7028L390.309 -33.017Z" fill="white" fill-opacity="0.08"/>
<path d="M456.377 48.1948L457.989 50.1768C492.843 93.0188 486.366 156.003 443.524 190.856L441.542 192.469L376.823 112.915L456.377 48.1948Z" fill="white" fill-opacity="0.08"/>
<path d="M522.445 129.406L524.058 131.388C558.911 174.23 552.435 237.215 509.593 272.068L507.611 273.681L442.891 194.126L522.445 129.406Z" fill="white" fill-opacity="0.08"/>
<path d="M588.513 210.618L590.126 212.6C624.979 255.442 618.503 318.427 575.661 353.28L573.679 354.892L508.959 275.338L588.513 210.618Z" fill="white" fill-opacity="0.08"/>
<path d="M654.581 291.83L656.194 293.812C691.047 336.654 684.571 399.638 641.729 434.491L639.747 436.104L575.027 356.55L654.581 291.83Z" fill="white" fill-opacity="0.08"/>
<path d="M720.649 373.042L722.262 375.024C757.115 417.866 750.639 480.85 707.797 515.703L705.815 517.316L641.095 437.761L720.649 373.042Z" fill="white" fill-opacity="0.08"/>
<path d="M176.961 -129.372L178.573 -127.39C213.426 -84.5482 206.95 -21.5638 164.108 13.2894L162.126 14.9019L97.4064 -64.6525L176.961 -129.372Z" fill="white" fill-opacity="0.08"/>
<path d="M243.029 -48.1605L244.641 -46.1784C279.495 -3.33644 273.018 59.6479 230.176 94.5012L228.194 96.1136L163.474 16.5593L243.029 -48.1605Z" fill="white" fill-opacity="0.08"/>
<path d="M309.097 33.0511L310.71 35.0332C345.563 77.8752 339.087 140.86 296.245 175.713L294.263 177.325L229.543 97.7709L309.097 33.0511Z" fill="white" fill-opacity="0.08"/>
<path d="M375.165 114.263L376.778 116.245C411.631 159.087 405.155 222.071 362.313 256.925L360.331 258.537L295.611 178.983L375.165 114.263Z" fill="white" fill-opacity="0.08"/>
<path d="M441.233 195.475L442.846 197.457C477.699 240.299 471.223 303.283 428.381 338.136L426.399 339.749L361.679 260.194L441.233 195.475Z" fill="white" fill-opacity="0.08"/>
<path d="M507.302 276.686L508.914 278.668C543.767 321.51 537.291 384.495 494.449 419.348L492.467 420.96L427.747 341.406L507.302 276.686Z" fill="white" fill-opacity="0.08"/>
<path d="M573.37 357.898L574.982 359.88C609.835 402.722 603.359 465.706 560.517 500.56L558.535 502.172L493.815 422.618L573.37 357.898Z" fill="white" fill-opacity="0.08"/>
<path d="M639.438 439.11L641.05 441.092C675.903 483.934 669.427 546.918 626.585 581.771L624.603 583.384L559.883 503.83L639.438 439.11Z" fill="white" fill-opacity="0.08"/>
<path d="M95.749 -63.3041L97.3615 -61.3221C132.215 -18.4801 125.739 44.5043 82.8966 79.3575L80.9145 80.97L16.1947 1.41569L95.749 -63.3041Z" fill="white" fill-opacity="0.08"/>
<path d="M161.817 17.9076L163.43 19.8896C198.283 62.7316 191.807 125.716 148.965 160.569L146.983 162.182L82.2628 82.6274L161.817 17.9076Z" fill="white" fill-opacity="0.08"/>
<path d="M227.885 99.1193L229.498 101.101C264.351 143.943 257.875 206.928 215.033 241.781L213.051 243.393L148.331 163.839L227.885 99.1193Z" fill="white" fill-opacity="0.08"/>
<path d="M293.953 180.331L295.566 182.313C330.419 225.155 323.943 288.139 281.101 322.993L279.119 324.605L214.399 245.051L293.953 180.331Z" fill="white" fill-opacity="0.08"/>
<path d="M360.022 261.543L361.634 263.525C396.487 306.367 390.011 369.351 347.169 404.204L345.187 405.817L280.467 326.263L360.022 261.543Z" fill="white" fill-opacity="0.08"/>
<path d="M426.09 342.754L427.702 344.737C462.556 387.579 456.079 450.563 413.237 485.416L411.255 487.029L346.536 407.474L426.09 342.754Z" fill="white" fill-opacity="0.08"/>
<path opacity="0.5" d="M492.158 423.966L493.77 425.948C528.624 468.79 522.147 531.774 479.305 566.628L477.323 568.24L412.604 488.686L492.158 423.966Z" fill="white" fill-opacity="0.08"/>
<path d="M558.226 505.178L559.839 507.16C594.692 550.002 588.216 612.986 545.374 647.84L543.392 649.452L478.672 569.898L558.226 505.178Z" fill="white" fill-opacity="0.08"/>
<path d="M-51.5308 -78.4476L-49.9183 -76.4656C-15.0651 -33.6236 -21.5412 29.3608 -64.3832 64.214L-66.3653 65.8265L-131.085 -13.7278L-51.5308 -78.4476Z" fill="white" fill-opacity="0.08"/>
<path d="M14.5374 2.76404L16.1498 4.74609C51.003 47.5881 44.5269 110.572 1.68489 145.426L-0.297161 147.038L-65.017 67.4838L14.5374 2.76404Z" fill="white" fill-opacity="0.08"/>
<path d="M80.6055 83.9758L82.2179 85.9578C117.071 128.8 110.595 191.784 67.753 226.637L65.771 228.25L1.05116 148.696L80.6055 83.9758Z" fill="white" fill-opacity="0.08"/>
<path d="M146.674 165.187L148.286 167.169C183.139 210.011 176.663 272.996 133.821 307.849L131.839 309.462L67.1193 229.907L146.674 165.187Z" fill="white" fill-opacity="0.08"/>
<path d="M212.742 246.399L214.354 248.381C249.207 291.223 242.731 354.208 199.889 389.061L197.907 390.673L133.187 311.119L212.742 246.399Z" fill="white" fill-opacity="0.08"/>
<path d="M278.81 327.611L280.422 329.593C315.276 372.435 308.799 435.419 265.957 470.272L263.975 471.885L199.256 392.331L278.81 327.611Z" fill="white" fill-opacity="0.08"/>
<path d="M344.878 408.823L346.491 410.805C381.344 453.647 374.868 516.631 332.026 551.484L330.044 553.097L265.324 473.542L344.878 408.823Z" fill="white" fill-opacity="0.08"/>
<path d="M410.946 490.034L412.559 492.016C447.412 534.858 440.936 597.843 398.094 632.696L396.112 634.308L331.392 554.754L410.946 490.034Z" fill="white" fill-opacity="0.08"/>
<path d="M477.014 571.246L478.627 573.228C513.48 616.07 507.004 679.054 464.162 713.908L462.18 715.52L397.46 635.966L477.014 571.246Z" fill="white" fill-opacity="0.08"/>
<path d="M-0.606201 150.044L1.00626 152.026C35.8595 194.868 29.3833 257.852 -13.4587 292.706L-15.4407 294.318L-80.1605 214.764L-0.606201 150.044Z" fill="white" fill-opacity="0.08"/>
<path d="M65.4619 231.256L67.0744 233.238C101.928 276.08 95.4514 339.064 52.6094 373.917L50.6274 375.53L-14.0924 295.975L65.4619 231.256Z" fill="white" fill-opacity="0.08"/>
<path d="M131.53 312.467L133.142 314.449C167.996 357.291 161.52 420.276 118.678 455.129L116.696 456.741L51.9757 377.187L131.53 312.467Z" fill="white" fill-opacity="0.08"/>
<path d="M197.598 393.679L199.211 395.661C234.064 438.503 227.588 501.487 184.746 536.341L182.764 537.953L118.044 458.399L197.598 393.679Z" fill="white" fill-opacity="0.08"/>
<path d="M263.666 474.891L265.279 476.873C300.132 519.715 293.656 582.699 250.814 617.552L248.832 619.165L184.112 539.611L263.666 474.891Z" fill="white" fill-opacity="0.08"/>
<path d="M329.734 556.102L331.347 558.084C366.2 600.926 359.724 663.911 316.882 698.764L314.9 700.376L250.18 620.822L329.734 556.102Z" fill="white" fill-opacity="0.08"/>
<path d="M395.803 637.314L397.415 639.296C432.268 682.138 425.792 745.123 382.95 779.976L380.968 781.588L316.248 702.034L395.803 637.314Z" fill="white" fill-opacity="0.08"/>
<path d="M-15.7498 297.324L-14.1373 299.306C20.7159 342.148 14.2398 405.132 -28.6022 439.985L-30.5843 441.598L-95.3041 362.044L-15.7498 297.324Z" fill="white" fill-opacity="0.08"/>
<path d="M50.3184 378.535L51.9308 380.518C86.7841 423.36 80.3079 486.344 37.4659 521.197L35.4838 522.81L-29.236 443.255L50.3184 378.535Z" fill="white" fill-opacity="0.08"/>
<path d="M116.386 459.747L117.999 461.729C152.852 504.571 146.376 567.555 103.534 602.409L101.552 604.021L36.8322 524.467L116.386 459.747Z" fill="white" fill-opacity="0.08"/>
<path d="M182.455 540.959L184.067 542.941C218.92 585.783 212.444 648.767 169.602 683.621L167.62 685.233L102.9 605.679L182.455 540.959Z" fill="white" fill-opacity="0.08"/>
<path d="M248.523 622.17L250.135 624.152C284.988 666.994 278.512 729.979 235.67 764.832L233.688 766.445L168.968 686.89L248.523 622.17Z" fill="white" fill-opacity="0.08"/>
<path d="M314.591 703.382L316.203 705.364C351.057 748.206 344.58 811.191 301.738 846.044L299.756 847.656L235.037 768.102L314.591 703.382Z" fill="white" fill-opacity="0.08"/>
<path d="M-30.8933 444.604L-29.2808 446.586C5.57238 489.428 -0.903783 552.412 -43.7458 587.265L-45.7278 588.878L-110.448 509.323L-30.8933 444.604Z" fill="white" fill-opacity="0.08"/>
<path d="M35.1748 525.815L36.7873 527.797C71.6405 570.639 65.1643 633.624 22.3223 668.477L20.3403 670.089L-44.3795 590.535L35.1748 525.815Z" fill="white" fill-opacity="0.08"/>
<path d="M101.243 607.027L102.855 609.009C137.709 651.851 131.232 714.835 88.3905 749.689L86.4084 751.301L21.6886 671.747L101.243 607.027Z" fill="white" fill-opacity="0.08"/>
<path d="M167.311 688.239L168.923 690.221C203.777 733.063 197.301 796.047 154.459 830.9L152.477 832.513L87.7567 752.958L167.311 688.239Z" fill="white" fill-opacity="0.08"/>
<path d="M-46.0369 591.883L-44.4244 593.865C-9.57117 636.707 -16.0473 699.692 -58.8893 734.545L-60.8714 736.158L-125.591 656.603L-46.0369 591.883Z" fill="white" fill-opacity="0.08"/>
<path d="M20.0312 673.095L21.6437 675.077C56.4969 717.919 50.0208 780.904 7.17878 815.757L5.19674 817.369L-59.5231 737.815L20.0312 673.095Z" fill="white" fill-opacity="0.08"/>
</svg>
