<svg width="115" height="115" viewBox="0 0 115 115" fill="none" xmlns="http://www.w3.org/2000/svg">
<path d="M57.5 115C89.2564 115 115 89.2564 115 57.5C115 25.7436 89.2564 0 57.5 0C25.7436 0 0 25.7436 0 57.5C0 89.2564 25.7436 115 57.5 115Z" fill="url(#paint0_linear_133_9506)"/>
<path fill-rule="evenodd" clip-rule="evenodd" d="M58.5063 83.8242C61.035 83.6485 63.5421 83.2395 65.9956 82.6023C69.0234 83.5263 72.2243 83.7354 75.3466 83.2133C75.4701 83.1933 75.5951 83.1837 75.7203 83.1845C76.8344 83.1845 78.297 83.8314 80.4281 85.197V82.9509C80.4286 82.5623 80.5323 82.1809 80.7287 81.8455C80.9251 81.5102 81.2071 81.2331 81.5458 81.0427C82.473 80.518 83.3355 79.9142 84.1225 79.2494C87.2275 76.6188 88.9813 73.1112 88.9813 69.3953C88.9813 68.1483 88.7836 66.9372 88.4098 65.78C89.3478 64.0298 90.1061 62.1898 90.6631 60.2816C92.4641 62.9805 93.4292 66.1507 93.4375 69.3953C93.4375 74.4445 91.0872 79.1523 87.0227 82.5952C86.3442 83.1694 85.63 83.6999 84.8844 84.1836V89.4341C84.8844 91.2417 82.8 92.2803 81.3302 91.2058C79.9402 90.1668 78.5011 89.1953 77.0177 88.2948C76.5929 88.0406 76.151 87.816 75.6952 87.6228C74.4733 87.8061 73.2227 87.8995 71.9613 87.8995C66.8869 87.8995 62.2006 86.3794 58.5098 83.8242H58.5063ZM31.6753 73.3233C25.2641 67.8859 21.5625 60.4792 21.5625 52.5406C21.5625 36.322 36.8647 23.3594 55.5486 23.3594C74.2361 23.3594 89.5383 36.322 89.5383 52.5406C89.5383 68.7628 74.2325 81.7255 55.5486 81.7255C53.4498 81.7255 51.3727 81.5638 49.3386 81.2403C48.4581 81.4488 44.9398 83.5403 39.8691 87.2419C38.0327 88.5859 35.4272 87.2886 35.4272 85.0281V76.0725C34.114 75.2446 32.8604 74.326 31.6753 73.3233ZM49.4608 75.7167C49.6153 75.7167 49.7734 75.7275 49.928 75.7527C51.7608 76.0617 53.6439 76.2198 55.5486 76.2198C71.3323 76.2198 83.9644 65.5177 83.9644 52.5406C83.9644 39.5672 71.3323 28.865 55.5486 28.865C39.772 28.865 27.1328 39.5672 27.1328 52.5406C27.1328 58.8153 30.0833 64.7234 35.3014 69.1437C36.6131 70.2506 38.0542 71.2569 39.5995 72.1338C40.4656 72.6225 41.0011 73.5353 41.0011 74.52V79.6842C45.0117 76.9925 47.6495 75.7167 49.4608 75.7167ZM41.0622 58.0498C38.6005 58.0498 36.6059 56.0733 36.6059 53.6439C36.6059 51.2109 38.6005 49.238 41.0622 49.238C43.5239 49.238 45.5184 51.2109 45.5184 53.6439C45.5184 56.0769 43.5239 58.0498 41.0622 58.0498ZM55.5486 58.0498C53.0869 58.0498 51.0923 56.0733 51.0923 53.6439C51.0923 51.2109 53.0869 49.238 55.5486 49.238C58.0103 49.238 60.0048 51.2109 60.0048 53.6439C60.0048 56.0769 58.0103 58.0498 55.5486 58.0498ZM70.035 58.0498C67.5733 58.0498 65.5787 56.0733 65.5787 53.6439C65.5787 51.2109 67.5733 49.238 70.035 49.238C72.4967 49.238 74.4913 51.2109 74.4913 53.6439C74.4913 56.0769 72.4967 58.0498 70.035 58.0498Z" fill="white"/>
<defs>
<linearGradient id="paint0_linear_133_9506" x1="88.895" y1="127.305" x2="-5.06" y2="42.895" gradientUnits="userSpaceOnUse">
<stop stop-color="#9D1A36"/>
<stop offset="0.4" stop-color="#9D1A36"/>
<stop offset="0.6" stop-color="#E6192F"/>
</linearGradient>
</defs>
</svg>
