<svg width="64" height="64" viewBox="0 0 64 64" fill="none" xmlns="http://www.w3.org/2000/svg">
<path d="M28.8 6.40002C27.9513 6.40002 27.1374 6.73717 26.5372 7.33728C25.9371 7.9374 25.6 8.75133 25.6 9.60002C25.6 10.4487 25.9371 11.2627 26.5372 11.8628C27.1374 12.4629 27.9513 12.8 28.8 12.8H35.2C36.0487 12.8 36.8626 12.4629 37.4627 11.8628C38.0628 11.2627 38.4 10.4487 38.4 9.60002C38.4 8.75133 38.0628 7.9374 37.4627 7.33728C36.8626 6.73717 36.0487 6.40002 35.2 6.40002H28.8Z" fill="#1C64F2"/>
<path fill-rule="evenodd" clip-rule="evenodd" d="M12.8 16C12.8 14.3026 13.4743 12.6747 14.6745 11.4745C15.8747 10.2743 17.5026 9.59998 19.2 9.59998C19.2 12.1461 20.2114 14.5879 22.0118 16.3882C23.8121 18.1885 26.2539 19.2 28.8 19.2H35.2C37.7461 19.2 40.1879 18.1885 41.9882 16.3882C43.7886 14.5879 44.8 12.1461 44.8 9.59998C46.4974 9.59998 48.1252 10.2743 49.3255 11.4745C50.5257 12.6747 51.2 14.3026 51.2 16V51.2C51.2 52.8974 50.5257 54.5252 49.3255 55.7255C48.1252 56.9257 46.4974 57.6 44.8 57.6H19.2C17.5026 57.6 15.8747 56.9257 14.6745 55.7255C13.4743 54.5252 12.8 52.8974 12.8 51.2V16ZM22.4 28.8C21.5513 28.8 20.7374 29.1371 20.1372 29.7372C19.5371 30.3374 19.2 31.1513 19.2 32C19.2 32.8487 19.5371 33.6626 20.1372 34.2627C20.7374 34.8628 21.5513 35.2 22.4 35.2H22.432C23.2807 35.2 24.0946 34.8628 24.6947 34.2627C25.2948 33.6626 25.632 32.8487 25.632 32C25.632 31.1513 25.2948 30.3374 24.6947 29.7372C24.0946 29.1371 23.2807 28.8 22.432 28.8H22.4ZM32 28.8C31.1513 28.8 30.3374 29.1371 29.7372 29.7372C29.1371 30.3374 28.8 31.1513 28.8 32C28.8 32.8487 29.1371 33.6626 29.7372 34.2627C30.3374 34.8628 31.1513 35.2 32 35.2H41.6C42.4487 35.2 43.2626 34.8628 43.8627 34.2627C44.4628 33.6626 44.8 32.8487 44.8 32C44.8 31.1513 44.4628 30.3374 43.8627 29.7372C43.2626 29.1371 42.4487 28.8 41.6 28.8H32ZM22.4 41.6C21.5513 41.6 20.7374 41.9371 20.1372 42.5372C19.5371 43.1374 19.2 43.9513 19.2 44.8C19.2 45.6487 19.5371 46.4626 20.1372 47.0627C20.7374 47.6628 21.5513 48 22.4 48H22.432C23.2807 48 24.0946 47.6628 24.6947 47.0627C25.2948 46.4626 25.632 45.6487 25.632 44.8C25.632 43.9513 25.2948 43.1374 24.6947 42.5372C24.0946 41.9371 23.2807 41.6 22.432 41.6H22.4ZM32 41.6C31.1513 41.6 30.3374 41.9371 29.7372 42.5372C29.1371 43.1374 28.8 43.9513 28.8 44.8C28.8 45.6487 29.1371 46.4626 29.7372 47.0627C30.3374 47.6628 31.1513 48 32 48H41.6C42.4487 48 43.2626 47.6628 43.8627 47.0627C44.4628 46.4626 44.8 45.6487 44.8 44.8C44.8 43.9513 44.4628 43.1374 43.8627 42.5372C43.2626 41.9371 42.4487 41.6 41.6 41.6H32Z" fill="#1F82BD"/>
</svg>
