<svg width="64" height="64" viewBox="0 0 64 64" fill="none" xmlns="http://www.w3.org/2000/svg">
<path fill-rule="evenodd" clip-rule="evenodd" d="M21.2 8.49598C25.5722 6.72731 30.312 6.05951 35.0027 6.55126C39.6934 7.043 44.1916 8.67923 48.102 11.3162C52.0124 13.9531 55.2154 17.5101 57.4294 21.6746C59.6435 25.839 60.8009 30.4835 60.8 35.2C60.8 36.0487 60.4628 36.8626 59.8627 37.4627C59.2626 38.0628 58.4487 38.4 57.6 38.4C56.7513 38.4 55.9373 38.0628 55.3372 37.4627C54.7371 36.8626 54.4 36.0487 54.4 35.2C54.4015 31.5312 53.5018 27.9183 51.7801 24.6787C50.0583 21.439 47.5672 18.6719 44.5257 16.6204C41.4842 14.5689 37.9853 13.2958 34.3366 12.9131C30.6879 12.5304 27.001 13.0498 23.6 14.4256C23.2079 14.5987 22.785 14.6913 22.3564 14.6979C21.9278 14.7044 21.5023 14.6248 21.1051 14.4637C20.7078 14.3027 20.347 14.0635 20.044 13.7603C19.741 13.4571 19.502 13.0961 19.3412 12.6988C19.1804 12.3015 19.101 11.8759 19.1079 11.4473C19.1147 11.0188 19.2075 10.5959 19.3809 10.2039C19.5543 9.81191 19.8046 9.45873 20.1171 9.16534C20.4296 8.87195 20.7978 8.64432 21.2 8.49598ZM14.9184 15.8688C15.5542 16.4303 15.9411 17.2214 15.9939 18.0681C16.0467 18.9148 15.7611 19.7478 15.2 20.384C11.5835 24.4712 9.59114 29.7425 9.59997 35.2C9.59997 36.0487 9.26283 36.8626 8.66272 37.4627C8.0626 38.0628 7.24867 38.4 6.39997 38.4C5.55128 38.4 4.73735 38.0628 4.13723 37.4627C3.53712 36.8626 3.19997 36.0487 3.19997 35.2C3.19106 28.1835 5.75238 21.4068 10.4 16.1504C10.6781 15.8351 11.0156 15.5777 11.3932 15.3928C11.7709 15.208 12.1812 15.0994 12.6008 15.0733C13.0204 15.0471 13.4411 15.1039 13.8388 15.2404C14.2364 15.3769 14.6033 15.5904 14.9184 15.8688Z" fill="#1F82BD"/>
<path fill-rule="evenodd" clip-rule="evenodd" d="M16 35.2C16 30.9565 17.6857 26.8868 20.6863 23.8862C23.6869 20.8857 27.7566 19.2 32 19.2C36.2435 19.2 40.3131 20.8857 43.3137 23.8862C46.3143 26.8868 48 30.9565 48 35.2C48 36.0486 47.6629 36.8626 47.0628 37.4627C46.4626 38.0628 45.6487 38.4 44.8 38.4C43.9513 38.4 43.1374 38.0628 42.5373 37.4627C41.9372 36.8626 41.6 36.0486 41.6 35.2C41.6 32.6539 40.5886 30.2121 38.7882 28.4117C36.9879 26.6114 34.5461 25.6 32 25.6C29.4539 25.6 27.0121 26.6114 25.2118 28.4117C23.4114 30.2121 22.4 32.6539 22.4 35.2C22.4 40.5664 21.296 45.6832 19.3024 50.3328C18.9676 51.1127 18.3367 51.7277 17.5484 52.0425C16.7602 52.3572 15.8792 52.346 15.0992 52.0112C14.3193 51.6763 13.7043 51.0454 13.3895 50.2572C13.0747 49.4689 13.086 48.5879 13.4208 47.808C15.1286 43.8243 16.0062 39.5342 16 35.2ZM44.5472 41.6384C44.9625 41.7042 45.3607 41.8512 45.7191 42.071C46.0775 42.2908 46.3891 42.579 46.6361 42.9193C46.883 43.2596 47.0605 43.6452 47.1584 44.0541C47.2562 44.463 47.2726 44.8871 47.2064 45.3024C46.7891 47.9347 46.2066 50.5383 45.4624 53.0976C45.3531 53.5099 45.1624 53.8962 44.9016 54.2338C44.6408 54.5714 44.3151 54.8534 43.9437 55.0633C43.5723 55.2732 43.1627 55.4067 42.739 55.456C42.3152 55.5053 41.8859 55.4693 41.4763 55.3503C41.0666 55.2312 40.6849 55.0314 40.3536 54.7627C40.0223 54.494 39.748 54.1618 39.547 53.7855C39.3459 53.4092 39.2221 52.9966 39.1829 52.5718C39.1436 52.147 39.1897 51.7187 39.3184 51.312C39.9808 49.0304 40.5056 46.688 40.8864 44.2976C41.0201 43.4601 41.4808 42.71 42.1672 42.212C42.8536 41.714 43.7096 41.5088 44.5472 41.6416V41.6384Z" fill="#1F82BD"/>
<path fill-rule="evenodd" clip-rule="evenodd" d="M32 32C32.8487 32 33.6626 32.3371 34.2628 32.9373C34.8629 33.5374 35.2 34.3513 35.2 35.2C35.2 42.3552 33.728 49.1776 31.072 55.3728C30.9062 55.759 30.666 56.1087 30.3651 56.4021C30.0641 56.6955 29.7083 56.9267 29.318 57.0825C28.9277 57.2384 28.5105 57.3158 28.0903 57.3104C27.6701 57.3051 27.255 57.217 26.8688 57.0512C26.4826 56.8854 26.1329 56.6452 25.8395 56.3442C25.5462 56.0433 25.315 55.6875 25.1591 55.2972C25.0032 54.9069 24.9258 54.4897 24.9312 54.0695C24.9365 53.6493 25.0246 53.2342 25.1904 52.848C27.5802 47.2717 28.8084 41.2668 28.8 35.2C28.8 34.3513 29.1372 33.5374 29.7373 32.9373C30.3374 32.3371 31.1513 32 32 32Z" fill="#1F82BD"/>
</svg>
