<svg width="16" height="16" viewBox="0 0 16 16" fill="none" xmlns="http://www.w3.org/2000/svg">
<path d="M12.8 3.69995L12.8001 3.69995C13.0808 3.6999 13.3509 3.80718 13.5551 3.99983C13.6823 4.11978 13.7779 4.26717 13.8358 4.42899L7.99999 7.34655L2.16413 4.42899C2.2221 4.26717 2.3177 4.11978 2.44484 3.99983C2.64904 3.80718 2.91917 3.6999 3.19989 3.69995H3.19999L12.8 3.69995Z" fill="#9CA3AF" stroke="#9CA3AF"/>
<path d="M14.4 6.49438L8.00001 9.69438L1.60001 6.49438V11.2C1.60001 11.6243 1.76858 12.0313 2.06864 12.3314C2.36869 12.6314 2.77566 12.8 3.20001 12.8H12.8C13.2244 12.8 13.6313 12.6314 13.9314 12.3314C14.2314 12.0313 14.4 11.6243 14.4 11.2V6.49438Z" fill="#9CA3AF"/>
</svg>
