<svg width="219" height="66" viewBox="0 0 219 66" fill="none" xmlns="http://www.w3.org/2000/svg">
<path d="M24.5854 21.4579L0 31.7887V11.126L24.5854 21.4579Z" fill="url(#paint0_linear_845_9889)"/>
<path d="M49.1707 31.2591V11.126L24.5861 21.1911L0 31.2591L24.5861 41.3253L49.1707 31.2591Z" fill="url(#paint1_linear_845_9889)"/>
<path d="M24.5854 45.2954L0.00180335 55.6302L0 34.9675L24.5854 45.2954Z" fill="url(#paint2_linear_845_9889)"/>
<path d="M0 55.1L24.5836 65.1667L49.1707 55.0966V34.9675L24.5803 45.0291L0 55.1Z" fill="url(#paint3_linear_845_9889)"/>
<path d="M71.76 15.52C74.88 15.52 77.6533 16.3467 80.08 18C82.5067 19.6533 84.2 21.9467 85.16 24.88H77C76.44 23.7867 75.7333 23 74.88 22.52C74.0267 22.04 72.9867 21.8 71.76 21.8C69.4933 21.8 67.68 22.5333 66.32 24C64.9867 25.4667 64.32 27.4267 64.32 29.88C64.32 32.3333 64.9867 34.2933 66.32 35.76C67.68 37.2267 69.4933 37.96 71.76 37.96C72.9867 37.96 74.0267 37.72 74.88 37.24C75.7333 36.76 76.44 35.9733 77 34.88H85.16C84.2 37.8133 82.5067 40.1067 80.08 41.76C77.6533 43.4133 74.88 44.24 71.76 44.24C69.12 44.24 66.6933 43.6267 64.48 42.4C62.2933 41.1733 60.56 39.4667 59.28 37.28C58 35.0933 57.36 32.6267 57.36 29.88C57.36 27.1333 58 24.6667 59.28 22.48C60.56 20.2933 62.2933 18.5867 64.48 17.36C66.6933 16.1333 69.12 15.52 71.76 15.52ZM96.3869 21.04V27.08H105.347V32.28H96.3869V38.8H106.547V44H89.5469V15.84H106.547V21.04H96.3869ZM144.238 15.92V44H137.398V28.16L130.878 44H125.798L119.278 28.16V44H112.438V15.92H120.278L128.358 35.28L136.398 15.92H144.238ZM163.01 15.52C166.13 15.52 168.903 16.3467 171.33 18C173.757 19.6533 175.45 21.9467 176.41 24.88H168.25C167.69 23.7867 166.983 23 166.13 22.52C165.277 22.04 164.237 21.8 163.01 21.8C160.743 21.8 158.93 22.5333 157.57 24C156.237 25.4667 155.57 27.4267 155.57 29.88C155.57 32.3333 156.237 34.2933 157.57 35.76C158.93 37.2267 160.743 37.96 163.01 37.96C164.237 37.96 165.277 37.72 166.13 37.24C166.983 36.76 167.69 35.9733 168.25 34.88H176.41C175.45 37.8133 173.757 40.1067 171.33 41.76C168.903 43.4133 166.13 44.24 163.01 44.24C160.37 44.24 157.943 43.6267 155.73 42.4C153.543 41.1733 151.81 39.4667 150.53 37.28C149.25 35.0933 148.61 32.6267 148.61 29.88C148.61 27.1333 149.25 24.6667 150.53 22.48C151.81 20.2933 153.543 18.5867 155.73 17.36C157.943 16.1333 160.37 15.52 163.01 15.52ZM201.277 35.64C201.277 37.1867 200.837 38.6267 199.957 39.96C199.104 41.2667 197.877 42.32 196.277 43.12C194.704 43.8933 192.917 44.28 190.917 44.28C187.637 44.28 185.024 43.52 183.077 42C181.157 40.48 180.197 38.32 180.197 35.52H187.477C187.664 37.76 188.81 38.88 190.917 38.88C191.904 38.88 192.677 38.6267 193.237 38.12C193.797 37.5867 194.077 36.8933 194.077 36.04C194.077 35.2933 193.837 34.68 193.357 34.2C192.877 33.72 192.29 33.3467 191.597 33.08C190.904 32.8133 189.904 32.4933 188.597 32.12C186.837 31.64 185.397 31.1467 184.277 30.64C183.157 30.1333 182.197 29.36 181.397 28.32C180.597 27.28 180.197 25.8933 180.197 24.16C180.197 22.4267 180.65 20.9067 181.557 19.6C182.464 18.2933 183.69 17.2933 185.237 16.6C186.81 15.88 188.544 15.52 190.437 15.52C193.557 15.52 196.05 16.2133 197.917 17.6C199.784 18.96 200.757 21.12 200.837 24.08H193.397C193.29 23.0667 192.957 22.2933 192.397 21.76C191.864 21.2 191.184 20.92 190.357 20.92C189.477 20.92 188.757 21.1467 188.197 21.6C187.664 22.0533 187.397 22.7467 187.397 23.68C187.397 24.4533 187.637 25.0933 188.117 25.6C188.597 26.08 189.197 26.4667 189.917 26.76C190.664 27.0267 191.664 27.32 192.917 27.64C194.704 28.1467 196.144 28.64 197.237 29.12C198.357 29.6 199.304 30.3733 200.077 31.44C200.877 32.48 201.277 33.88 201.277 35.64Z" fill="#707070"/>
<defs>
<linearGradient id="paint0_linear_845_9889" x1="19.0045" y1="28.6273" x2="3.40649" y2="0.799792" gradientUnits="userSpaceOnUse">
<stop stop-color="#06549B"/>
<stop offset="0.55" stop-color="#2FA1D3"/>
<stop offset="0.9" stop-color="#2FA1D3"/>
</linearGradient>
<linearGradient id="paint1_linear_845_9889" x1="-1.72098" y1="45.4324" x2="12.4571" y2="-16.9003" gradientUnits="userSpaceOnUse">
<stop stop-color="#1371B1"/>
<stop offset="0.05" stop-color="#2FA1D3"/>
<stop offset="0.45" stop-color="#2FA1D3"/>
<stop offset="0.6" stop-color="#06569C"/>
</linearGradient>
<linearGradient id="paint2_linear_845_9889" x1="19.0045" y1="57.8411" x2="2.06385" y2="39.732" gradientUnits="userSpaceOnUse">
<stop stop-color="#9D1A36"/>
<stop offset="0.4" stop-color="#9D1A36"/>
<stop offset="0.6" stop-color="#E6192F"/>
</linearGradient>
<linearGradient id="paint3_linear_845_9889" x1="-1.72097" y1="78.9678" x2="12.4571" y2="16.6351" gradientUnits="userSpaceOnUse">
<stop stop-color="#A21C38"/>
<stop offset="0.13" stop-color="#E6192F"/>
<stop offset="0.45" stop-color="#E6192F"/>
<stop offset="0.6" stop-color="#A71C37"/>
</linearGradient>
</defs>
</svg>
