<svg width="219" height="58" viewBox="0 0 219 58" fill="none" xmlns="http://www.w3.org/2000/svg">
<path d="M24.5854 13.4579L0 23.7886V3.12598L24.5854 13.4579Z" fill="#1F82BD"/>
<path d="M49.1707 23.259V3.12598L24.5861 13.191L0 23.259L24.5861 33.3252L49.1707 23.259Z" fill="url(#paint0_linear_79_24776)"/>
<path d="M24.5854 37.2954L0.00180335 47.6302L0 26.9675L24.5854 37.2954Z" fill="url(#paint1_linear_79_24776)"/>
<path d="M0 47.1L24.5836 57.1667L49.1707 47.0966V26.9675L24.5803 37.0291L0 47.1Z" fill="url(#paint2_linear_79_24776)"/>
<path d="M57.32 29.92C57.32 27.1467 57.92 24.68 59.12 22.52C60.32 20.3333 61.9867 18.64 64.12 17.44C66.28 16.2133 68.72 15.6 71.44 15.6C74.7733 15.6 77.6267 16.48 80 18.24C82.3733 20 83.96 22.4 84.76 25.44H77.24C76.68 24.2667 75.88 23.3733 74.84 22.76C73.8267 22.1467 72.6667 21.84 71.36 21.84C69.2533 21.84 67.5467 22.5733 66.24 24.04C64.9333 25.5067 64.28 27.4667 64.28 29.92C64.28 32.3733 64.9333 34.3333 66.24 35.8C67.5467 37.2667 69.2533 38 71.36 38C72.6667 38 73.8267 37.6933 74.84 37.08C75.88 36.4667 76.68 35.5733 77.24 34.4H84.76C83.96 37.44 82.3733 39.84 80 41.6C77.6267 43.3333 74.7733 44.2 71.44 44.2C68.72 44.2 66.28 43.6 64.12 42.4C61.9867 41.1733 60.32 39.48 59.12 37.32C57.92 35.16 57.32 32.6933 57.32 29.92ZM95.7888 21.4V27.08H104.949V32.36H95.7888V38.52H106.149V44H88.9488V15.92H106.149V21.4H95.7888ZM142.389 15.92V44H135.549V27.16L129.269 44H123.749L117.429 27.12V44H110.589V15.92H118.669L126.549 35.36L134.349 15.92H142.389ZM146.148 29.92C146.148 27.1467 146.748 24.68 147.948 22.52C149.148 20.3333 150.815 18.64 152.948 17.44C155.108 16.2133 157.548 15.6 160.268 15.6C163.601 15.6 166.455 16.48 168.828 18.24C171.201 20 172.788 22.4 173.588 25.44H166.068C165.508 24.2667 164.708 23.3733 163.668 22.76C162.655 22.1467 161.495 21.84 160.188 21.84C158.081 21.84 156.375 22.5733 155.068 24.04C153.761 25.5067 153.108 27.4667 153.108 29.92C153.108 32.3733 153.761 34.3333 155.068 35.8C156.375 37.2667 158.081 38 160.188 38C161.495 38 162.655 37.6933 163.668 37.08C164.708 36.4667 165.508 35.5733 166.068 34.4H173.588C172.788 37.44 171.201 39.84 168.828 41.6C166.455 43.3333 163.601 44.2 160.268 44.2C157.548 44.2 155.108 43.6 152.948 42.4C150.815 41.1733 149.148 39.48 147.948 37.32C146.748 35.16 146.148 32.6933 146.148 29.92ZM187.937 44.28C185.884 44.28 184.044 43.9467 182.417 43.28C180.79 42.6133 179.484 41.6267 178.497 40.32C177.537 39.0133 177.03 37.44 176.977 35.6H184.257C184.364 36.64 184.724 37.44 185.337 38C185.95 38.5333 186.75 38.8 187.737 38.8C188.75 38.8 189.55 38.5733 190.137 38.12C190.724 37.64 191.017 36.9867 191.017 36.16C191.017 35.4667 190.777 34.8933 190.297 34.44C189.844 33.9867 189.27 33.6133 188.577 33.32C187.91 33.0267 186.95 32.6933 185.697 32.32C183.884 31.76 182.404 31.2 181.257 30.64C180.11 30.08 179.124 29.2533 178.297 28.16C177.47 27.0667 177.057 25.64 177.057 23.88C177.057 21.2667 178.004 19.2267 179.897 17.76C181.79 16.2667 184.257 15.52 187.297 15.52C190.39 15.52 192.884 16.2667 194.777 17.76C196.67 19.2267 197.684 21.28 197.817 23.92H190.417C190.364 23.0133 190.03 22.3067 189.417 21.8C188.804 21.2667 188.017 21 187.057 21C186.23 21 185.564 21.2267 185.057 21.68C184.55 22.1067 184.297 22.7333 184.297 23.56C184.297 24.4667 184.724 25.1733 185.577 25.68C186.43 26.1867 187.764 26.7333 189.577 27.32C191.39 27.9333 192.857 28.52 193.977 29.08C195.124 29.64 196.11 30.4533 196.937 31.52C197.764 32.5867 198.177 33.96 198.177 35.64C198.177 37.24 197.764 38.6933 196.937 40C196.137 41.3067 194.964 42.3467 193.417 43.12C191.87 43.8933 190.044 44.28 187.937 44.28Z" fill="white"/>
<defs>
<linearGradient id="paint0_linear_79_24776" x1="-1.72098" y1="37.4323" x2="12.4571" y2="-24.9004" gradientUnits="userSpaceOnUse">
<stop stop-color="#130F26"/>
<stop offset="0.05" stop-color="#2FA1D3"/>
<stop offset="0.45" stop-color="#2FA1D3"/>
<stop offset="0.6" stop-color="#06569C"/>
</linearGradient>
<linearGradient id="paint1_linear_79_24776" x1="19.0045" y1="49.8411" x2="2.06385" y2="31.732" gradientUnits="userSpaceOnUse">
<stop stop-color="#9D1A36"/>
<stop offset="0.4" stop-color="#9D1A36"/>
<stop offset="0.6" stop-color="#E6192F"/>
</linearGradient>
<linearGradient id="paint2_linear_79_24776" x1="-1.72097" y1="70.9678" x2="12.4571" y2="8.63511" gradientUnits="userSpaceOnUse">
<stop stop-color="white"/>
<stop offset="0.13" stop-color="#E6192F"/>
<stop offset="0.45" stop-color="#E6192F"/>
<stop offset="0.6" stop-color="#A71C37"/>
</linearGradient>
</defs>
</svg>
