<svg width="16" height="19" viewBox="0 0 16 19" fill="none" xmlns="http://www.w3.org/2000/svg">
<path d="M14.0169 10.4679C13.8402 10.4679 13.6556 10.4011 13.4789 10.3533C13.1212 10.2596 12.7697 10.1351 12.4271 9.98085C12.0547 9.81967 11.6453 9.82804 11.2777 10.0044C10.9101 10.1807 10.6103 10.5125 10.436 10.9359L10.2594 11.3657C9.47736 10.8482 8.75877 10.2055 8.1237 9.45556C7.49325 8.70011 6.95295 7.8453 6.51793 6.91506L6.85514 6.64764C7.21111 6.4403 7.49005 6.08369 7.63827 5.64642C7.78649 5.20915 7.79353 4.72212 7.65803 4.27905C7.53055 3.87068 7.42594 3.45271 7.3449 3.0279C7.30476 2.81778 7.27264 2.59811 7.24856 2.37844C7.15106 1.70571 6.85484 1.09648 6.41325 0.66049C5.97167 0.224495 5.41373 -0.00962129 4.83991 0.000303049H2.43126C2.08525 -0.00356171 1.74259 0.0813064 1.42662 0.24913C1.11066 0.416953 0.828797 0.663791 0.600233 0.97284C0.371669 1.28189 0.201766 1.64589 0.102091 2.04007C0.00241563 2.43425 -0.0246914 2.84935 0.0226149 3.25711C0.450341 7.2583 1.98649 10.9759 4.38841 13.8228C6.79033 16.6696 9.92112 18.4834 13.2862 18.9777H13.5913C14.1834 18.9787 14.755 18.7203 15.1971 18.2518C15.4511 17.9816 15.654 17.6503 15.7924 17.2799C15.9308 16.9094 16.0016 16.5083 16 16.1029V13.2377C15.9901 12.5743 15.7871 11.9355 15.4254 11.4303C15.0637 10.9252 14.5659 10.5851 14.0169 10.4679ZM14.4183 16.1984C14.4182 16.334 14.3937 16.468 14.3467 16.5915C14.2996 16.715 14.231 16.8252 14.1453 16.9147C14.0559 17.0074 13.951 17.0765 13.8376 17.1177C13.7241 17.1588 13.6046 17.171 13.487 17.1535C10.4801 16.6949 7.68712 15.0585 5.54863 12.5025C3.41013 9.94656 2.04781 6.61644 1.67655 3.03745C1.66377 2.89755 1.67497 2.75601 1.70947 2.62141C1.74397 2.4868 1.80106 2.36191 1.87727 2.25428C1.95251 2.15241 2.04512 2.07076 2.14895 2.01477C2.25278 1.95878 2.36544 1.92973 2.47944 1.92956H4.88808C5.07479 1.92462 5.25711 1.99725 5.40365 2.13497C5.55019 2.27268 5.65179 2.46686 5.69096 2.68407C5.72308 2.94512 5.76322 3.20299 5.8114 3.45768C5.90415 3.96114 6.02758 4.45591 6.18072 4.93805L5.05669 5.55885C4.96058 5.6113 4.87413 5.68582 4.8023 5.77813C4.73047 5.87044 4.67468 5.97871 4.63812 6.09674C4.60157 6.21477 4.58497 6.34023 4.58929 6.46591C4.5936 6.59159 4.61875 6.71501 4.66327 6.8291C5.81878 9.77337 7.80836 12.1401 10.2835 13.5146C10.4789 13.6102 10.6982 13.6102 10.8936 13.5146C10.9938 13.472 11.0858 13.4062 11.1644 13.3209C11.2429 13.2357 11.3065 13.1327 11.3513 13.018L11.8491 11.6809C12.2641 11.8575 12.6878 12.0042 13.1176 12.1202C13.3317 12.1775 13.5485 12.2253 13.768 12.2635C13.9506 12.3101 14.1138 12.4309 14.2296 12.6053C14.3453 12.7796 14.4064 12.9965 14.4022 13.2186L14.4183 16.1984Z" fill="white"/>
</svg>
