<svg width="182" height="181" viewBox="0 0 182 181" fill="none" xmlns="http://www.w3.org/2000/svg">
<path d="M163.098 80.9975L152.842 69.0816C150.881 66.8191 149.297 62.5958 149.297 59.5791V46.7583C149.297 38.7641 142.736 32.2029 134.742 32.2029H121.921C118.98 32.2029 114.681 30.6191 112.418 28.6583L100.503 18.4016C95.2988 13.9521 86.7767 13.9521 81.4975 18.4016L69.6571 28.7337C67.3946 30.6191 63.0959 32.2029 60.1546 32.2029H47.1075C39.1134 32.2029 32.5521 38.7641 32.5521 46.7583V59.6545C32.5521 62.5958 30.9684 66.8191 29.083 69.0816L18.9017 81.0729C14.5276 86.2766 14.5276 94.7233 18.9017 99.927L29.083 111.918C30.9684 114.181 32.5521 118.404 32.5521 121.345V134.242C32.5521 142.236 39.1134 148.797 47.1075 148.797H60.1546C63.0959 148.797 67.3946 150.381 69.6571 152.342L81.573 162.598C86.7767 167.048 95.2988 167.048 100.578 162.598L112.494 152.342C114.756 150.381 118.98 148.797 121.996 148.797H134.817C142.811 148.797 149.373 142.236 149.373 134.242V121.421C149.373 118.48 150.956 114.181 152.917 111.918L163.174 100.002C167.548 94.7987 167.548 86.2012 163.098 80.9975ZM122.373 76.2462L85.9471 112.672C84.8913 113.728 83.4584 114.332 81.95 114.332C80.4417 114.332 79.0088 113.728 77.953 112.672L59.7021 94.4216C57.515 92.2345 57.515 88.6145 59.7021 86.4275C61.8892 84.2404 65.5092 84.2404 67.6963 86.4275L81.95 100.681L114.379 68.2521C116.566 66.065 120.186 66.065 122.373 68.2521C124.56 70.4391 124.56 74.0591 122.373 76.2462Z" fill="url(#paint0_linear_1228_39445)"/>
<defs>
<linearGradient id="paint0_linear_1228_39445" x1="132.208" y1="142.852" x2="8.93162" y2="-41.9293" gradientUnits="userSpaceOnUse">
<stop stop-color="#06549B"/>
<stop offset="0.55" stop-color="#2FA1D3"/>
<stop offset="0.9" stop-color="#2FA1D3"/>
</linearGradient>
</defs>
</svg>
