<svg width="49" height="48" viewBox="0 0 49 48" fill="none" xmlns="http://www.w3.org/2000/svg">
<rect x="0.174988" width="48" height="48" rx="8" fill="#D5F5F6"/>
<path fill-rule="evenodd" clip-rule="evenodd" d="M16.175 11.2C15.3263 11.2 14.5124 11.5371 13.9122 12.1372C13.3121 12.7373 12.975 13.5513 12.975 14.4V36.7999L18.575 33.5999L24.175 36.7999L29.775 33.5999L35.375 36.7999V14.4C35.375 13.5513 35.0378 12.7373 34.4377 12.1372C33.8376 11.5371 33.0237 11.2 32.175 11.2H16.175ZM23.7062 17.1312C23.9976 16.8294 24.1589 16.4252 24.1553 16.0057C24.1516 15.5862 23.9833 15.1849 23.6867 14.8882C23.39 14.5916 22.9887 14.4233 22.5692 14.4197C22.1497 14.416 21.7455 14.5773 21.4438 14.8688L16.6438 19.6688C16.3438 19.9688 16.1753 20.3757 16.1753 20.8C16.1753 21.2242 16.3438 21.6311 16.6438 21.9312L21.4438 26.7311C21.7455 27.0226 22.1497 27.1839 22.5692 27.1802C22.9887 27.1766 23.39 27.0083 23.6867 26.7117C23.9833 26.415 24.1516 26.0137 24.1553 25.5942C24.1589 25.1747 23.9976 24.7705 23.7062 24.4688L21.6374 22.4H24.175C25.448 22.4 26.6689 22.9057 27.5691 23.8058C28.4693 24.706 28.975 25.9269 28.975 27.2V28.7999C28.975 29.2243 29.1435 29.6313 29.4436 29.9313C29.7437 30.2314 30.1506 30.4 30.575 30.4C30.9993 30.4 31.4063 30.2314 31.7063 29.9313C32.0064 29.6313 32.175 29.2243 32.175 28.7999V27.2C32.175 25.0782 31.3321 23.0434 29.8318 21.5431C28.3315 20.0428 26.2967 19.2 24.175 19.2H21.6374L23.7062 17.1312Z" fill="#047481"/>
</svg>
