<svg width="61" height="60" viewBox="0 0 61 60" fill="none" xmlns="http://www.w3.org/2000/svg">
<circle cx="30.0674" cy="30" r="30" fill="#1F82BD"/>
<path d="M32.7816 34.1262H26.7816" stroke="white" stroke-width="2" stroke-miterlimit="10" stroke-linecap="round" stroke-linejoin="round"/>
<path d="M29.7816 31.1978V37.1978" stroke="white" stroke-width="2" stroke-miterlimit="10" stroke-linecap="round" stroke-linejoin="round"/>
<path d="M30.8595 18.6218L30.8235 18.7058L27.3435 26.7818H23.9235C23.1075 26.7818 22.3275 26.9498 21.6195 27.2498L23.7195 22.2338L23.7675 22.1138L23.8515 21.9218C23.8755 21.8498 23.8995 21.7778 23.9355 21.7178C25.5075 18.0818 27.2835 17.2538 30.8595 18.6218Z" stroke="white" stroke-width="2" stroke-linecap="round" stroke-linejoin="round"/>
<path d="M37.3275 27.0218C36.7875 26.8538 36.2115 26.7818 35.6355 26.7818H27.3435L30.8235 18.7058L30.8595 18.6218C31.0395 18.6818 31.2075 18.7658 31.3875 18.8378L34.0395 19.9538C35.5155 20.5658 36.5475 21.2018 37.1715 21.9698C37.2915 22.1138 37.3875 22.2458 37.4715 22.4018C37.5795 22.5698 37.6635 22.7378 37.7115 22.9178C37.7595 23.0258 37.7955 23.1338 37.8195 23.2298C38.1435 24.2378 37.9515 25.4738 37.3275 27.0218Z" stroke="white" stroke-width="2" stroke-linecap="round" stroke-linejoin="round"/>
<path d="M41.4936 32.6382V34.9782C41.4936 35.2182 41.4816 35.4582 41.4696 35.6982C41.2416 39.8862 38.9016 41.9982 34.4616 41.9982H25.1016C24.8136 41.9982 24.5256 41.9742 24.2496 41.9382C20.4336 41.6862 18.3936 39.6462 18.1416 35.8302C18.1056 35.5542 18.0816 35.2662 18.0816 34.9782V32.6382C18.0816 30.2262 19.5456 28.1502 21.6336 27.2502C22.3536 26.9502 23.1216 26.7822 23.9376 26.7822H35.6496C36.2376 26.7822 36.8136 26.8662 37.3416 27.0222C39.7296 27.7542 41.4936 29.9862 41.4936 32.6382Z" stroke="white" stroke-width="2" stroke-linecap="round" stroke-linejoin="round"/>
<path d="M23.7195 22.2339L21.6195 27.2499C19.5315 28.1499 18.0675 30.2259 18.0675 32.6379V29.1219C18.0675 25.7139 20.4915 22.8699 23.7195 22.2339Z" stroke="white" stroke-width="2" stroke-linecap="round" stroke-linejoin="round"/>
<path d="M41.4899 29.1212V32.6372C41.4899 29.9972 39.7379 27.7532 37.3379 27.0332C37.9619 25.4732 38.1419 24.2492 37.8419 23.2292C37.8179 23.1212 37.7819 23.0132 37.7339 22.9172C39.9659 24.0692 41.4899 26.4332 41.4899 29.1212Z" stroke="white" stroke-width="2" stroke-linecap="round" stroke-linejoin="round"/>
</svg>
