<svg width="120" height="120" viewBox="0 0 120 120" fill="none" xmlns="http://www.w3.org/2000/svg">
<circle cx="60" cy="60" r="60" fill="#1F82BD" fill-opacity="0.2"/>
<path d="M53.5251 29.5251C54.1815 28.8687 55.0717 28.5 56 28.5H64C64.9283 28.5 65.8185 28.8687 66.4749 29.5251C67.1313 30.1815 67.5 31.0717 67.5 32C67.5 32.9283 67.1313 33.8185 66.4749 34.4749C65.8185 35.1313 64.9283 35.5 64 35.5H56C55.0717 35.5 54.1815 35.1313 53.5251 34.4749C52.8687 33.8185 52.5 32.9283 52.5 32C52.5 31.0717 52.8687 30.1815 53.5251 29.5251Z" fill="#1F82BD" stroke="#1F82BD"/>
<path fill-rule="evenodd" clip-rule="evenodd" d="M36 40C36 37.8783 36.8429 35.8434 38.3431 34.3431C39.8434 32.8429 41.8783 32 44 32C44 35.1826 45.2643 38.2348 47.5147 40.4853C49.7652 42.7357 52.8174 44 56 44H64C67.1826 44 70.2348 42.7357 72.4853 40.4853C74.7357 38.2348 76 35.1826 76 32C78.1217 32 80.1566 32.8429 81.6569 34.3431C83.1571 35.8434 84 37.8783 84 40V84C84 86.1217 83.1571 88.1566 81.6569 89.6569C80.1566 91.1571 78.1217 92 76 92H44C41.8783 92 39.8434 91.1571 38.3431 89.6569C36.8429 88.1566 36 86.1217 36 84V40ZM48 56C46.9391 56 45.9217 56.4214 45.1716 57.1716C44.4214 57.9217 44 58.9391 44 60C44 61.0609 44.4214 62.0783 45.1716 62.8284C45.9217 63.5786 46.9391 64 48 64H48.04C49.1009 64 50.1183 63.5786 50.8684 62.8284C51.6186 62.0783 52.04 61.0609 52.04 60C52.04 58.9391 51.6186 57.9217 50.8684 57.1716C50.1183 56.4214 49.1009 56 48.04 56H48ZM60 56C58.9391 56 57.9217 56.4214 57.1716 57.1716C56.4214 57.9217 56 58.9391 56 60C56 61.0609 56.4214 62.0783 57.1716 62.8284C57.9217 63.5786 58.9391 64 60 64H72C73.0609 64 74.0783 63.5786 74.8284 62.8284C75.5786 62.0783 76 61.0609 76 60C76 58.9391 75.5786 57.9217 74.8284 57.1716C74.0783 56.4214 73.0609 56 72 56H60ZM48 72C46.9391 72 45.9217 72.4214 45.1716 73.1716C44.4214 73.9217 44 74.9391 44 76C44 77.0609 44.4214 78.0783 45.1716 78.8284C45.9217 79.5786 46.9391 80 48 80H48.04C49.1009 80 50.1183 79.5786 50.8684 78.8284C51.6186 78.0783 52.04 77.0609 52.04 76C52.04 74.9391 51.6186 73.9217 50.8684 73.1716C50.1183 72.4214 49.1009 72 48.04 72H48ZM60 72C58.9391 72 57.9217 72.4214 57.1716 73.1716C56.4214 73.9217 56 74.9391 56 76C56 77.0609 56.4214 78.0783 57.1716 78.8284C57.9217 79.5786 58.9391 80 60 80H72C73.0609 80 74.0783 79.5786 74.8284 78.8284C75.5786 78.0783 76 77.0609 76 76C76 74.9391 75.5786 73.9217 74.8284 73.1716C74.0783 72.4214 73.0609 72 72 72H60Z" fill="#1F82BD"/>
</svg>
