<svg width="49" height="48" viewBox="0 0 49 48" fill="none" xmlns="http://www.w3.org/2000/svg">
<rect x="0.970825" width="48" height="48" rx="8" fill="#DEF7EC"/>
<path d="M15.3708 14.3999C14.5221 14.3999 13.7082 14.737 13.1081 15.3372C12.508 15.9373 12.1708 16.7512 12.1708 17.5999V19.1999H37.7708V17.5999C37.7708 16.7512 37.4337 15.9373 36.8336 15.3372C36.2335 14.737 35.4195 14.3999 34.5708 14.3999H15.3708Z" fill="#057A55"/>
<path fill-rule="evenodd" clip-rule="evenodd" d="M37.7708 22.3999H12.1708V30.3999C12.1708 31.2486 12.508 32.0625 13.1081 32.6626C13.7082 33.2628 14.5221 33.5999 15.3708 33.5999H34.5708C35.4195 33.5999 36.2335 33.2628 36.8336 32.6626C37.4337 32.0625 37.7708 31.2486 37.7708 30.3999V22.3999ZM15.3708 28.7999C15.3708 28.3756 15.5394 27.9686 15.8395 27.6685C16.1395 27.3685 16.5465 27.1999 16.9708 27.1999H18.5708C18.9952 27.1999 19.4021 27.3685 19.7022 27.6685C20.0023 27.9686 20.1708 28.3756 20.1708 28.7999C20.1708 29.2242 20.0023 29.6312 19.7022 29.9313C19.4021 30.2313 18.9952 30.3999 18.5708 30.3999H16.9708C16.5465 30.3999 16.1395 30.2313 15.8395 29.9313C15.5394 29.6312 15.3708 29.2242 15.3708 28.7999ZM23.3708 27.1999C22.9465 27.1999 22.5395 27.3685 22.2395 27.6685C21.9394 27.9686 21.7708 28.3756 21.7708 28.7999C21.7708 29.2242 21.9394 29.6312 22.2395 29.9313C22.5395 30.2313 22.9465 30.3999 23.3708 30.3999H24.9708C25.3952 30.3999 25.8021 30.2313 26.1022 29.9313C26.4023 29.6312 26.5708 29.2242 26.5708 28.7999C26.5708 28.3756 26.4023 27.9686 26.1022 27.6685C25.8021 27.3685 25.3952 27.1999 24.9708 27.1999H23.3708Z" fill="#057A55"/>
</svg>
