<svg width="49" height="48" viewBox="0 0 49 48" fill="none" xmlns="http://www.w3.org/2000/svg">
<rect x="0.788589" width="48" height="48" rx="8" fill="#E1EFFE"/>
<path d="M23.1886 11.7C22.8969 11.7 22.6171 11.8158 22.4108 12.0221C22.2045 12.2284 22.0886 12.5082 22.0886 12.8C22.0886 13.0917 22.2045 13.3715 22.4108 13.5778C22.6171 13.7841 22.8969 13.9 23.1886 13.9H26.3886C26.6803 13.9 26.9601 13.7841 27.1664 13.5778C27.3727 13.3715 27.4886 13.0917 27.4886 12.8C27.4886 12.5082 27.3727 12.2284 27.1664 12.0221M23.1886 11.7L27.1664 12.0221M23.1886 11.7H26.3886C26.6803 11.7 26.9601 11.8158 27.1664 12.0221M23.1886 11.7L27.52 11.6686L27.1664 12.0221" fill="#1C64F2" stroke="#1C64F2"/>
<path fill-rule="evenodd" clip-rule="evenodd" d="M15.1886 16C15.1886 15.1514 15.5257 14.3374 16.1258 13.7373C16.726 13.1372 17.5399 12.8 18.3886 12.8C18.3886 14.0731 18.8943 15.294 19.7945 16.1942C20.6946 17.0943 21.9155 17.6 23.1886 17.6H26.3886C27.6616 17.6 28.8825 17.0943 29.7827 16.1942C30.6829 15.294 31.1886 14.0731 31.1886 12.8C32.0373 12.8 32.8512 13.1372 33.4513 13.7373C34.0514 14.3374 34.3886 15.1514 34.3886 16V33.6C34.3886 34.4487 34.0514 35.2627 33.4513 35.8628C32.8512 36.4629 32.0373 36.8 31.1886 36.8H18.3886C17.5399 36.8 16.726 36.4629 16.1258 35.8628C15.5257 35.2627 15.1886 34.4487 15.1886 33.6V16ZM19.9886 22.4C19.5642 22.4 19.1573 22.5686 18.8572 22.8687C18.5572 23.1687 18.3886 23.5757 18.3886 24C18.3886 24.4244 18.5572 24.8314 18.8572 25.1314C19.1573 25.4315 19.5642 25.6 19.9886 25.6H20.0046C20.4289 25.6 20.8359 25.4315 21.136 25.1314C21.436 24.8314 21.6046 24.4244 21.6046 24C21.6046 23.5757 21.436 23.1687 21.136 22.8687C20.8359 22.5686 20.4289 22.4 20.0046 22.4H19.9886ZM24.7886 22.4C24.3642 22.4 23.9573 22.5686 23.6572 22.8687C23.3572 23.1687 23.1886 23.5757 23.1886 24C23.1886 24.4244 23.3572 24.8314 23.6572 25.1314C23.9573 25.4315 24.3642 25.6 24.7886 25.6H29.5886C30.0129 25.6 30.4199 25.4315 30.72 25.1314C31.02 24.8314 31.1886 24.4244 31.1886 24C31.1886 23.5757 31.02 23.1687 30.72 22.8687C30.4199 22.5686 30.0129 22.4 29.5886 22.4H24.7886ZM19.9886 28.8C19.5642 28.8 19.1573 28.9686 18.8572 29.2687C18.5572 29.5687 18.3886 29.9757 18.3886 30.4C18.3886 30.8244 18.5572 31.2314 18.8572 31.5314C19.1573 31.8315 19.5642 32 19.9886 32H20.0046C20.4289 32 20.8359 31.8315 21.136 31.5314C21.436 31.2314 21.6046 30.8244 21.6046 30.4C21.6046 29.9757 21.436 29.5687 21.136 29.2687C20.8359 28.9686 20.4289 28.8 20.0046 28.8H19.9886ZM24.7886 28.8C24.3642 28.8 23.9573 28.9686 23.6572 29.2687C23.3572 29.5687 23.1886 29.9757 23.1886 30.4C23.1886 30.8244 23.3572 31.2314 23.6572 31.5314C23.9573 31.8315 24.3642 32 24.7886 32H29.5886C30.0129 32 30.4199 31.8315 30.72 31.5314C31.02 31.2314 31.1886 30.8244 31.1886 30.4C31.1886 29.9757 31.02 29.5687 30.72 29.2687C30.4199 28.9686 30.0129 28.8 29.5886 28.8H24.7886Z" fill="#1C64F2"/>
</svg>
