<svg width="120" height="120" viewBox="0 0 120 120" fill="none" xmlns="http://www.w3.org/2000/svg">
<circle cx="60" cy="60" r="60" fill="#1F82BD" fill-opacity="0.2"/>
<path d="M36 36C33.8783 36 31.8434 36.8429 30.3431 38.3431C28.8429 39.8434 28 41.8783 28 44V48H92V44C92 41.8783 91.1571 39.8434 89.6569 38.3431C88.1566 36.8429 86.1217 36 84 36H36Z" fill="#1F82BD"/>
<path fill-rule="evenodd" clip-rule="evenodd" d="M92 56H28V76C28 78.1217 28.8429 80.1566 30.3431 81.6569C31.8434 83.1571 33.8783 84 36 84H84C86.1217 84 88.1566 83.1571 89.6569 81.6569C91.1571 80.1566 92 78.1217 92 76V56ZM36 72C36 70.9391 36.4214 69.9217 37.1716 69.1716C37.9217 68.4214 38.9391 68 40 68H44C45.0609 68 46.0783 68.4214 46.8284 69.1716C47.5786 69.9217 48 70.9391 48 72C48 73.0609 47.5786 74.0783 46.8284 74.8284C46.0783 75.5786 45.0609 76 44 76H40C38.9391 76 37.9217 75.5786 37.1716 74.8284C36.4214 74.0783 36 73.0609 36 72ZM56 68C54.9391 68 53.9217 68.4214 53.1716 69.1716C52.4214 69.9217 52 70.9391 52 72C52 73.0609 52.4214 74.0783 53.1716 74.8284C53.9217 75.5786 54.9391 76 56 76H60C61.0609 76 62.0783 75.5786 62.8284 74.8284C63.5786 74.0783 64 73.0609 64 72C64 70.9391 63.5786 69.9217 62.8284 69.1716C62.0783 68.4214 61.0609 68 60 68H56Z" fill="#1F82BD"/>
</svg>
