<svg width="786" height="288" viewBox="0 0 786 288" fill="none" xmlns="http://www.w3.org/2000/svg">
<mask id="mask0_976_32870" style="mask-type:alpha" maskUnits="userSpaceOnUse" x="0" y="0" width="1578" height="288">
<rect width="1577.95" height="288" rx="8" fill="url(#paint0_linear_976_32870)"/>
</mask>
<g mask="url(#mask0_976_32870)">
<path d="M35.1707 -55.0908V-55.0908C57.0704 -27.8123 53.0493 12.4733 26.0572 34.7251V34.7251L-13.7029 -14.8004L35.1707 -55.0908Z" fill="white" fill-opacity="0.08"/>
<path d="M75.759 -4.53369V-4.53369C97.6588 22.7448 93.6377 63.0305 66.6456 85.2822V85.2822L26.8855 35.7568L75.759 -4.53369Z" fill="white" fill-opacity="0.08"/>
<path d="M-14.721 -13.9614V-13.9614C7.17874 13.3171 3.15764 53.6027 -23.8345 75.8545V75.8545L-63.5945 26.329L-14.721 -13.9614Z" fill="white" fill-opacity="0.08"/>
<path d="M25.8674 36.5962V36.5962C47.7672 63.8747 43.7461 104.16 16.754 126.412V126.412L-23.0061 76.8866L25.8674 36.5962Z" fill="white" fill-opacity="0.08"/>
<path d="M66.4558 87.1533V87.1533C88.3555 114.432 84.3344 154.717 57.3423 176.969V176.969L17.5822 127.444L66.4558 87.1533Z" fill="white" fill-opacity="0.08"/>
<path d="M107.044 137.71V137.71C128.944 164.989 124.923 205.275 97.9307 227.526V227.526L58.1707 178.001L107.044 137.71Z" fill="white" fill-opacity="0.08"/>
<path d="M-24.0245 77.7261V77.7261C-2.12474 105.005 -6.14584 145.29 -33.1379 167.542V167.542L-72.898 118.017L-24.0245 77.7261Z" fill="white" fill-opacity="0.08"/>
<path d="M16.5639 128.283V128.283C38.4637 155.562 34.4426 195.847 7.45046 218.099V218.099L-32.3096 168.574L16.5639 128.283Z" fill="white" fill-opacity="0.08"/>
<path d="M57.1524 178.84V178.84C79.0521 206.119 75.031 246.404 48.0389 268.656V268.656L8.27887 219.131L57.1524 178.84Z" fill="white" fill-opacity="0.08"/>
<path d="M47.8488 270V270C69.7486 297.279 65.7275 337.564 38.7354 359.816V359.816L-1.02468 310.29L47.8488 270Z" fill="white" fill-opacity="0.08"/>
<path d="M6.86314 220V220C28.7629 247.279 24.7418 287.564 -2.25032 309.816V309.816L-42.0104 260.29L6.86314 220Z" fill="white" fill-opacity="0.08"/>
<path d="M97.7408 229.398V229.398C119.641 256.676 115.619 296.962 88.6274 319.214V319.214L48.8673 269.688L97.7408 229.398Z" fill="white" fill-opacity="0.08"/>
<path d="M627.943 -39.6562V-39.6562C649.843 -12.3777 645.822 27.9079 618.83 50.1597V50.1597L579.07 0.634208L627.943 -39.6562Z" fill="white" fill-opacity="0.08"/>
<path d="M668.531 10.9009V10.9009C690.431 38.1794 686.41 78.465 659.418 100.717V100.717L619.658 51.1913L668.531 10.9009Z" fill="white" fill-opacity="0.08"/>
<path d="M709.12 61.458V61.458C731.02 88.7365 726.999 129.022 700.006 151.274V151.274L660.246 101.748L709.12 61.458Z" fill="white" fill-opacity="0.08"/>
<path d="M749.708 112.016V112.016C771.608 139.294 767.587 179.58 740.595 201.832V201.832L700.835 152.306L749.708 112.016Z" fill="white" fill-opacity="0.08"/>
<path d="M537.463 -49.0835V-49.0835C559.363 -21.805 555.342 18.4806 528.35 40.7324V40.7324L488.59 -8.79304L537.463 -49.0835Z" fill="white" fill-opacity="0.08"/>
<path d="M578.052 1.47363V1.47363C599.951 28.7521 595.93 69.0378 568.938 91.2896V91.2896L529.178 41.7641L578.052 1.47363Z" fill="white" fill-opacity="0.08"/>
<path d="M618.64 52.0308V52.0308C640.54 79.3093 636.518 119.595 609.526 141.847V141.847L569.766 92.3212L618.64 52.0308Z" fill="white" fill-opacity="0.08"/>
<path d="M659.228 102.588V102.588C681.128 129.866 677.107 170.152 650.115 192.404V192.404L610.355 142.878L659.228 102.588Z" fill="white" fill-opacity="0.08"/>
<path d="M699.817 153.146V153.146C721.716 180.424 717.695 220.71 690.703 242.961V242.961L650.943 193.436L699.817 153.146Z" fill="white" fill-opacity="0.08"/>
<path d="M446.983 -58.5112V-58.5112C468.883 -31.2327 464.861 9.05292 437.869 31.3047V31.3047L398.109 -18.2208L446.983 -58.5112Z" fill="white" fill-opacity="0.08"/>
<path d="M487.571 -7.9541V-7.9541C509.471 19.3244 505.45 59.61 478.458 81.8618V81.8618L438.698 32.3364L487.571 -7.9541Z" fill="white" fill-opacity="0.08"/>
<path d="M528.16 42.6035V42.6035C550.06 69.882 546.038 110.168 519.046 132.419V132.419L479.286 82.894L528.16 42.6035Z" fill="white" fill-opacity="0.08"/>
<path d="M568.748 93.1606V93.1606C590.648 120.439 586.627 160.725 559.635 182.977V182.977L519.875 133.451L568.748 93.1606Z" fill="white" fill-opacity="0.08"/>
<path d="M609.336 143.718V143.718C631.236 170.996 627.215 211.282 600.223 233.534V233.534L560.463 184.008L609.336 143.718Z" fill="white" fill-opacity="0.08"/>
<path d="M649.925 194.275V194.275C671.825 221.553 667.803 261.839 640.811 284.091V284.091L601.051 234.565L649.925 194.275Z" fill="white" fill-opacity="0.08"/>
<path d="M356.503 -67.9385V-67.9385C378.403 -40.66 374.382 -0.374331 347.389 21.8775V21.8775L307.629 -27.648L356.503 -67.9385Z" fill="white" fill-opacity="0.08"/>
<path d="M397.091 -17.3813V-17.3813C418.991 9.89716 414.97 50.1828 387.978 72.4346V72.4346L348.218 22.9091L397.091 -17.3813Z" fill="white" fill-opacity="0.08"/>
<path d="M437.68 33.1758V33.1758C459.579 60.4543 455.558 100.74 428.566 122.992V122.992L388.806 73.4662L437.68 33.1758Z" fill="white" fill-opacity="0.08"/>
<path d="M478.268 83.7334V83.7334C500.168 111.012 496.147 151.298 469.154 173.549V173.549L429.394 124.024L478.268 83.7334Z" fill="white" fill-opacity="0.08"/>
<path d="M518.856 134.291V134.291C540.756 161.569 536.735 201.855 509.743 224.106V224.106L469.983 174.581L518.856 134.291Z" fill="white" fill-opacity="0.08"/>
<path d="M559.445 184.848V184.848C581.345 212.126 577.323 252.412 550.331 274.664V274.664L510.571 225.138L559.445 184.848Z" fill="white" fill-opacity="0.08"/>
<path d="M600.033 235.405V235.405C621.933 262.684 617.912 302.969 590.92 325.221V325.221L551.16 275.696L600.033 235.405Z" fill="white" fill-opacity="0.08"/>
<path d="M266.023 -77.3662V-77.3662C287.923 -50.0877 283.902 -9.80206 256.909 12.4497V12.4497L217.149 -37.0758L266.023 -77.3662Z" fill="white" fill-opacity="0.08"/>
<path d="M306.611 -26.8091V-26.8091C328.511 0.469425 324.49 40.7551 297.498 63.0069V63.0069L257.738 13.4814L306.611 -26.8091Z" fill="white" fill-opacity="0.08"/>
<path d="M347.2 23.7485V23.7485C369.099 51.027 365.078 91.3127 338.086 113.564V113.564L298.326 64.039L347.2 23.7485Z" fill="white" fill-opacity="0.08"/>
<path d="M387.788 74.3057V74.3057C409.688 101.584 405.667 141.87 378.674 164.122V164.122L338.914 114.596L387.788 74.3057Z" fill="white" fill-opacity="0.08"/>
<path d="M428.376 124.863V124.863C450.276 152.141 446.255 192.427 419.263 214.679V214.679L379.503 165.153L428.376 124.863Z" fill="white" fill-opacity="0.08"/>
<path d="M468.965 175.42V175.42C490.864 202.699 486.843 242.985 459.851 265.236V265.236L420.091 215.711L468.965 175.42Z" fill="white" fill-opacity="0.08"/>
<path opacity="0.5" d="M509.553 225.978V225.978C531.453 253.256 527.432 293.542 500.44 315.793V315.793L460.68 266.268L509.553 225.978Z" fill="white" fill-opacity="0.08"/>
<path d="M550.141 276.535V276.535C572.041 303.813 568.02 344.099 541.028 366.351V366.351L501.268 316.825L550.141 276.535Z" fill="white" fill-opacity="0.08"/>
<path d="M175.543 -86.7935V-86.7935C197.442 -59.5149 193.421 -19.2293 166.429 3.02249V3.02249L126.669 -46.503L175.543 -86.7935Z" fill="white" fill-opacity="0.08"/>
<path d="M216.131 -36.2363V-36.2363C238.031 -8.95782 234.01 31.3278 207.018 53.5796V53.5796L167.258 4.05413L216.131 -36.2363Z" fill="white" fill-opacity="0.08"/>
<path d="M256.72 14.3213V14.3213C278.619 41.5998 274.598 81.8854 247.606 104.137V104.137L207.846 54.6117L256.72 14.3213Z" fill="white" fill-opacity="0.08"/>
<path d="M297.308 64.8784V64.8784C319.208 92.1569 315.186 132.443 288.194 154.694V154.694L248.434 105.169L297.308 64.8784Z" fill="white" fill-opacity="0.08"/>
<path d="M337.896 115.436V115.436C359.796 142.714 355.775 183 328.783 205.251V205.251L289.023 155.726L337.896 115.436Z" fill="white" fill-opacity="0.08"/>
<path d="M378.484 165.993V165.993C400.384 193.271 396.363 233.557 369.371 255.809V255.809L329.611 206.283L378.484 165.993Z" fill="white" fill-opacity="0.08"/>
<path d="M419.073 216.55V216.55C440.973 243.829 436.952 284.114 409.959 306.366V306.366L370.199 256.841L419.073 216.55Z" fill="white" fill-opacity="0.08"/>
<path d="M459.661 267.107V267.107C481.561 294.386 477.54 334.672 450.548 356.923V356.923L410.788 307.398L459.661 267.107Z" fill="white" fill-opacity="0.08"/>
<path d="M125.651 -45.6636V-45.6636C147.551 -18.3851 143.53 21.9006 116.537 44.1524V44.1524L76.7774 -5.37312L125.651 -45.6636Z" fill="white" fill-opacity="0.08"/>
<path d="M166.239 4.89355V4.89355C188.139 32.1721 184.118 72.4577 157.126 94.7095V94.7095L117.366 45.184L166.239 4.89355Z" fill="white" fill-opacity="0.08"/>
<path d="M206.828 55.4507V55.4507C228.728 82.7292 224.706 123.015 197.714 145.267V145.267L157.954 95.7411L206.828 55.4507Z" fill="white" fill-opacity="0.08"/>
<path d="M247.416 106.008V106.008C269.316 133.287 265.295 173.572 238.303 195.824V195.824L198.543 146.299L247.416 106.008Z" fill="white" fill-opacity="0.08"/>
<path d="M288.005 156.565V156.565C309.904 183.844 305.883 224.13 278.891 246.381V246.381L239.131 196.856L288.005 156.565Z" fill="white" fill-opacity="0.08"/>
<path d="M328.593 207.123V207.123C350.493 234.401 346.472 274.687 319.48 296.939V296.939L279.719 247.413L328.593 207.123Z" fill="white" fill-opacity="0.08"/>
<path d="M369.181 257.68V257.68C391.081 284.959 387.06 325.244 360.068 347.496V347.496L320.308 297.971L369.181 257.68Z" fill="white" fill-opacity="0.08"/>
<path d="M116.348 46.0234V46.0234C138.247 73.3019 134.226 113.588 107.234 135.839V135.839L67.4742 86.3139L116.348 46.0234Z" fill="white" fill-opacity="0.08"/>
<path d="M156.936 96.5811V96.5811C178.836 123.86 174.815 164.145 147.823 186.397V186.397L108.063 136.872L156.936 96.5811Z" fill="white" fill-opacity="0.08"/>
<path d="M197.524 147.138V147.138C219.424 174.416 215.403 214.702 188.411 236.954V236.954L148.651 187.428L197.524 147.138Z" fill="white" fill-opacity="0.08"/>
<path d="M238.113 197.695V197.695C260.013 224.974 255.991 265.259 228.999 287.511V287.511L189.239 237.986L238.113 197.695Z" fill="white" fill-opacity="0.08"/>
<path d="M278.701 248.252V248.252C300.601 275.531 296.58 315.817 269.588 338.068V338.068L229.828 288.543L278.701 248.252Z" fill="white" fill-opacity="0.08"/>
<path d="M147.633 188.268V188.268C169.532 215.547 165.511 255.832 138.519 278.084V278.084L98.7592 228.559L147.633 188.268Z" fill="white" fill-opacity="0.08"/>
<path d="M188.221 238.825V238.825C210.121 266.104 206.1 306.389 179.108 328.641V328.641L139.348 279.116L188.221 238.825Z" fill="white" fill-opacity="0.08"/>
<path d="M138.329 279.955V279.955C160.229 307.234 156.208 347.519 129.216 369.771V369.771L89.4559 320.246L138.329 279.955Z" fill="white" fill-opacity="0.08"/>
</g>
<defs>
<linearGradient id="paint0_linear_976_32870" x1="1219.76" y1="243.936" x2="1158.61" y2="-258.349" gradientUnits="userSpaceOnUse">
<stop stop-color="#06549B"/>
<stop offset="0.55" stop-color="#2FA1D3"/>
<stop offset="0.9" stop-color="#2FA1D3"/>
</linearGradient>
</defs>
</svg>
