<svg width="790" height="288" viewBox="0 0 790 288" fill="none" xmlns="http://www.w3.org/2000/svg">
<path d="M35.1707 -55.0911C57.0704 -27.8126 53.0493 12.4731 26.0572 34.7249L-13.7029 -14.8006L35.1707 -55.0911Z" fill="white" fill-opacity="0.08"/>
<path d="M75.759 -4.53369C97.6588 22.7448 93.6377 63.0304 66.6456 85.2822L26.8855 35.7568L75.759 -4.53369Z" fill="white" fill-opacity="0.08"/>
<path d="M-14.721 -13.9612C7.17874 13.3173 3.15764 53.603 -23.8345 75.8548L-63.5945 26.3293L-14.721 -13.9612Z" fill="white" fill-opacity="0.08"/>
<path d="M25.8674 36.5959C47.7672 63.8745 43.7461 104.16 16.754 126.412L-23.0061 76.8864L25.8674 36.5959Z" fill="white" fill-opacity="0.08"/>
<path d="M66.4558 87.1533C88.3555 114.432 84.3344 154.717 57.3423 176.969L17.5822 127.444L66.4558 87.1533Z" fill="white" fill-opacity="0.08"/>
<path d="M107.044 137.71C128.944 164.989 124.923 205.275 97.9307 227.526L58.1707 178.001L107.044 137.71Z" fill="white" fill-opacity="0.08"/>
<path d="M-24.0245 77.7258C-2.12474 105.004 -6.14584 145.29 -33.1379 167.542L-72.898 118.016L-24.0245 77.7258Z" fill="white" fill-opacity="0.08"/>
<path d="M16.5639 128.283C38.4637 155.562 34.4426 195.847 7.45046 218.099L-32.3096 168.574L16.5639 128.283Z" fill="white" fill-opacity="0.08"/>
<path d="M57.1524 178.84C79.0521 206.119 75.031 246.404 48.0389 268.656L8.27887 219.131L57.1524 178.84Z" fill="white" fill-opacity="0.08"/>
<path d="M47.8488 270C69.7486 297.279 65.7275 337.564 38.7354 359.816L-1.02468 310.29L47.8488 270Z" fill="white" fill-opacity="0.08"/>
<path d="M6.86314 220C28.7629 247.279 24.7418 287.564 -2.25032 309.816L-42.0104 260.29L6.86314 220Z" fill="white" fill-opacity="0.08"/>
<path d="M97.7408 229.398C119.641 256.676 115.619 296.962 88.6274 319.214L48.8673 269.688L97.7408 229.398Z" fill="white" fill-opacity="0.08"/>
</svg>
