<svg width="49" height="48" viewBox="0 0 49 48" fill="none" xmlns="http://www.w3.org/2000/svg">
<rect x="0.37915" width="48" height="48" rx="8" fill="#FDF6B2"/>
<path fill-rule="evenodd" clip-rule="evenodd" d="M37.1791 24C37.1791 27.3947 35.8305 30.6505 33.4301 33.0509C31.0296 35.4514 27.7739 36.7999 24.3791 36.7999C20.9843 36.7999 17.7286 35.4514 15.3281 33.0509C12.9277 30.6505 11.5791 27.3947 11.5791 24C11.5791 20.6052 12.9277 17.3494 15.3281 14.949C17.7286 12.5485 20.9843 11.2 24.3791 11.2C27.7739 11.2 31.0296 12.5485 33.4301 14.949C35.8305 17.3494 37.1791 20.6052 37.1791 24ZM27.5791 19.2C27.5791 20.0486 27.242 20.8626 26.6418 21.4627C26.0417 22.0628 25.2278 22.4 24.3791 22.4C23.5304 22.4 22.7165 22.0628 22.1164 21.4627C21.5162 20.8626 21.1791 20.0486 21.1791 19.2C21.1791 18.3513 21.5162 17.5373 22.1164 16.9372C22.7165 16.3371 23.5304 16 24.3791 16C25.2278 16 26.0417 16.3371 26.6418 16.9372C27.242 17.5373 27.5791 18.3513 27.5791 19.2ZM24.3791 25.6C22.8473 25.5996 21.3475 26.0391 20.0582 26.8662C18.7688 27.6933 17.744 28.8731 17.1055 30.2656C18.0058 31.3129 19.1219 32.1532 20.3774 32.7287C21.6329 33.3043 22.998 33.6015 24.3791 33.5999C25.7602 33.6015 27.1253 33.3043 28.3808 32.7287C29.6363 32.1532 30.7524 31.3129 31.6527 30.2656C31.0142 28.8731 29.9894 27.6933 28.7 26.8662C27.4107 26.0391 25.9109 25.5996 24.3791 25.6Z" fill="#9F580A"/>
</svg>
